<svg width="83" height="84" viewBox="0 0 83 84" fill="none" xmlns="http://www.w3.org/2000/svg">
<path fill-rule="evenodd" clip-rule="evenodd" d="M42 35H21L21 56H34.2949L34.7564 58H21C19.8954 58 19 57.1046 19 56V35C19 33.8954 19.8954 33 21 33H42C43.1046 33 44 33.8954 44 35V48.7562L42 48.2947V35Z" fill="currentColor"/>
<path fill-rule="evenodd" clip-rule="evenodd" d="M44.7627 54.9818L47.4149 52.3296C47.6926 52.0519 47.5564 51.5772 47.1738 51.4889L35.3628 48.7633C35.0027 48.6802 34.6801 49.0028 34.7632 49.3629L37.4888 61.1739C37.5771 61.5565 38.0518 61.6927 38.3295 61.415L41.2271 58.5174L46.7267 64.017C46.922 64.2122 47.2386 64.2122 47.4338 64.017L50.2623 61.1885C50.4575 60.9933 50.4575 60.6767 50.2623 60.4814L44.7627 54.9818Z" fill="currentColor"/>
<path fill-rule="evenodd" clip-rule="evenodd" d="M39 25.8062V24.392L40.392 23H41.8062L39 25.8062ZM39 28.2118L44.2118 23H45.626L39 29.626V28.2118ZM39 32.0316L48.0316 23H49.4459L39.4459 33H39V32.0316ZM44 47.545L64 27.545V26.1308L44 46.1308V47.545ZM44 43.7252L63.9698 23.7553C63.8828 23.4092 63.6153 23.1347 63.2732 23.0378L44 42.3109V43.7252ZM44 39.9053L60.9053 23H59.4911L44 38.4911V39.9053ZM44 36.0855L57.0855 23H55.6713L43.9768 34.6945C43.9921 34.7941 44 34.8961 44 35V36.0855ZM42.9988 33.2669L53.2657 23H51.8515L41.8515 33H42C42.3638 33 42.7049 33.0971 42.9988 33.2669ZM45.9506 48L64 29.9506V31.3648L47.3648 48H45.9506ZM49.7704 48L64 33.7704V35.1846L51.1846 48H49.7704ZM53.5902 48L64 37.5902V39.0045L55.0045 48H53.5902ZM57.4101 48L64 41.4101V42.8243L58.8243 48H57.4101ZM61.2299 48L64 45.2299V46.6441L62.6441 48H61.2299Z" fill="#3393FA"/>
</svg>
