<svg width="56" height="56" viewBox="0 0 56 56" fill="none" xmlns="http://www.w3.org/2000/svg">
<path d="M27.7773 42.5814L27.7773 13.5505" stroke="currentcolor" stroke-width="2" stroke-linecap="round"/>
<path d="M15.974 42.5814L15.974 13.5505" stroke="currentcolor" stroke-width="2" stroke-linecap="round"/>
<path d="M39.5806 42.5814L39.5806 13.5505" stroke="currentcolor" stroke-width="2" stroke-linecap="round"/>
<path d="M41.9905 35.1917C41.9905 36.5401 40.9057 37.6227 39.5806 37.6227C38.2555 37.6227 37.1708 36.5401 37.1708 35.1917C37.1708 33.8433 38.2555 32.7608 39.5806 32.7608C40.9057 32.7608 41.9905 33.8433 41.9905 35.1917Z" fill="#1C1E22" stroke="currentcolor" stroke-width="2"/>
<path d="M18.3838 20.9402C18.3838 22.2886 17.2991 23.3711 15.974 23.3711C14.6489 23.3711 13.5641 22.2886 13.5641 20.9402C13.5641 19.5918 14.6489 18.5093 15.974 18.5093C17.2991 18.5093 18.3838 19.5918 18.3838 20.9402Z" fill="#1C1E22" stroke="currentcolor" stroke-width="2"/>
<path d="M30.1872 28.0659C30.1872 29.4143 29.1025 30.4969 27.7773 30.4969C26.4522 30.4969 25.3675 29.4143 25.3675 28.0659C25.3675 26.7176 26.4522 25.635 27.7773 25.635C29.1025 25.635 30.1872 26.7176 30.1872 28.0659Z" fill="#1C1E22" stroke="currentcolor" stroke-width="2"/>
<path d="M54.0561 28.0659C54.0561 42.6783 42.2849 54.5134 27.7773 54.5134C13.2697 54.5134 1.49854 42.6783 1.49854 28.0659C1.49854 13.4536 13.2697 1.61853 27.7773 1.61853C42.2849 1.61853 54.0561 13.4536 54.0561 28.0659Z" stroke="currentcolor" stroke-width="2"/>
</svg>
