<svg width="50" height="42" viewBox="0 0 50 42" fill="none" xmlns="http://www.w3.org/2000/svg">
<path d="M37.8141 10.5093V3.79999C37.8141 2.69542 36.9187 1.79999 35.8141 1.79999L17.9796 1.79999C17.4457 1.79999 16.934 2.01345 16.5584 2.39285L8.28937 10.7448C8.10399 10.9321 8 11.1849 8 11.4484V38.2C8 39.3046 8.89543 40.2 10 40.2H35.8141C36.9187 40.2 37.8141 39.3044 37.8141 38.1998C37.8141 37.6734 37.8141 37.1762 37.8141 36.901" stroke="currentcolor" stroke-width="2" stroke-linecap="round"/>
<path d="M8 29.0144L12.9646 24L17.9292 29.0144L22.8938 24L27.9083 29.0144L32.9227 24L37.9371 29.0144" stroke="currentcolor" stroke-linecap="round"/>
<path d="M9 12H18V3" stroke="currentcolor" stroke-width="2" stroke-linecap="round"/>
<path d="M36.4421 14.1476C36.9938 13.1673 38.3731 13.1673 38.9248 14.1476L48.8556 31.7923C49.4073 32.7726 48.7177 33.9979 47.6143 33.9979H27.7526C26.6492 33.9979 25.9596 32.7726 26.5113 31.7923L36.4421 14.1476Z" fill="url(#paint0_linear)"/>
<path fill-rule="evenodd" clip-rule="evenodd" d="M38.8141 20.5381C38.8141 19.9858 38.3664 19.5381 37.8141 19.5381C37.2618 19.5381 36.8141 19.9858 36.8141 20.5381V25.0247C36.8141 25.577 37.2618 26.0247 37.8141 26.0247C38.3664 26.0247 38.8141 25.577 38.8141 25.0247V20.5381ZM38.8141 28.9834C38.8141 28.4312 38.3664 27.9834 37.8141 27.9834C37.2618 27.9834 36.8141 28.4312 36.8141 28.9834V29.5113C36.8141 30.0636 37.2618 30.5113 37.8141 30.5113C38.3664 30.5113 38.8141 30.0636 38.8141 29.5113V28.9834Z" fill="currentcolor"/>
<defs>
<linearGradient id="paint0_linear" x1="37.7406" y1="16.3154" x2="37.7406" y2="31.0948" gradientUnits="userSpaceOnUse">
<stop stop-color="#F04C5A"/>
<stop offset="1" stop-color="#EE7B5C"/>
</linearGradient>
</defs>
</svg>
