<svg width="22" height="22" viewBox="0 0 22 22" fill="none" xmlns="http://www.w3.org/2000/svg">
<mask id="mask0" mask-type="alpha" maskUnits="userSpaceOnUse" x="1" y="4" width="20" height="16">
<path d="M14 18L1.5 19.5V11H11L7.5 4H15L21 7.5L19.5 11H11L14 18Z" fill="#C4C4C4"/>
</mask>
<g mask="url(#mask0)">
<path fill-rule="evenodd" clip-rule="evenodd" d="M11.8702 5.17048C12.0558 5.37492 12.0406 5.69113 11.8361 5.87677L11.4559 6.22205C13.2607 6.29197 14.9052 6.77417 16.1414 7.53978C17.4733 8.36474 18.3989 9.56969 18.3989 10.9865C18.3989 12.8147 16.8735 14.28 14.8628 15.0671C14.6056 15.1677 14.3156 15.0409 14.2149 14.7837C14.1142 14.5266 14.2411 14.2365 14.4982 14.1359C16.3555 13.4088 17.3989 12.202 17.3989 10.9865C17.3989 10.0433 16.78 9.1116 15.6148 8.38992C14.5338 7.72039 13.0403 7.27515 11.3592 7.2192L11.8441 7.67923C12.0445 7.86929 12.0528 8.18576 11.8627 8.38609C11.6727 8.58642 11.3562 8.59475 11.1559 8.40469L9.79036 7.10922L9.39955 6.73845L9.79837 6.37632L11.1639 5.13643C11.3683 4.95079 11.6845 4.96604 11.8702 5.17048ZM7.78398 7.18934C7.88464 7.44648 7.75779 7.73653 7.50064 7.83719C5.64334 8.56424 4.59998 9.77104 4.59998 10.9865C4.59998 11.9298 5.21888 12.8615 6.38406 13.5831C7.46436 14.2523 8.95665 14.6974 10.6364 14.7538L10.1653 14.3293C9.96016 14.1444 9.9437 13.8283 10.1285 13.6231C10.3134 13.418 10.6295 13.4015 10.8347 13.5864L12.2393 14.8519L12.6509 15.2228L12.2399 15.5943L10.8353 16.8641C10.6305 17.0493 10.3143 17.0333 10.1291 16.8285C9.94391 16.6236 9.95985 16.3075 10.1647 16.1223L10.5741 15.7522C8.75704 15.6866 7.10072 15.2033 5.85751 14.4333C4.52557 13.6083 3.59998 12.4034 3.59998 10.9865C3.59998 9.15836 5.12539 7.6931 7.13612 6.906C7.39327 6.80534 7.68332 6.93219 7.78398 7.18934Z" fill="currentColor"/>
</g>
<mask id="mask1" mask-type="alpha" maskUnits="userSpaceOnUse" x="2" y="6" width="18" height="12">
<path d="M4 7.5L7.5 6L11 11L16 10L20 9L18 15.5L14.5 17.5L13 15.5L11 11L2 13L4 7.5Z" fill="#C4C4C4"/>
</mask>
<g mask="url(#mask1)">
<path d="M10.9994 15.2597C7.18897 15.2597 4.09998 13.3465 4.09998 10.9864C4.09998 9.46461 5.38437 8.12857 7.31838 7.3715M10.9994 6.71313C14.8099 6.71313 17.8989 8.62636 17.8989 10.9864C17.8989 12.5083 16.6145 13.8443 14.6805 14.6014" stroke="currentColor" stroke-width="1" stroke-dasharray="1.5 1"/>
</g>
<circle cx="11" cy="11" r="1.5" fill="currentColor"/>
<ellipse opacity="0.1" cx="11" cy="11" rx="7" ry="4.5" fill="currentColor"/>
</svg>
