<svg width="17" height="12" viewBox="0 0 17 12" fill="none" xmlns="http://www.w3.org/2000/svg">
<path opacity="0.1" d="M8.5 1V10L2 4L4.5 2L7.5 1H8.5Z" fill="currentColor"/>
<path d="M8.49996 10L7.32239 8.91309" stroke="currentColor"/>
<path d="M4.33914 5.47879C4.13623 5.29149 3.8199 5.30414 3.6326 5.50705C3.4453 5.70996 3.45795 6.02629 3.66086 6.21359L4.33914 5.47879ZM3.66086 6.21359L4.03586 6.55975L4.71414 5.82494L4.33914 5.47879L3.66086 6.21359ZM4.78586 7.25205L5.53586 7.94436L6.21414 7.20956L5.46414 6.51725L4.78586 7.25205ZM6.28586 8.63667L7.03586 9.32898L7.71414 8.59417L6.96414 7.90187L6.28586 8.63667ZM7.78586 10.0213L8.16086 10.3674L8.83914 9.63264L8.46414 9.28648L7.78586 10.0213Z" fill="currentColor"/>
<path opacity="0.1" d="M8.5 1V10L15 4L12.5 2L9.5 1H8.5Z" fill="currentColor"/>
<path d="M12.6609 5.47879C12.8638 5.29149 13.1801 5.30414 13.3674 5.50705C13.5547 5.70996 13.5421 6.02629 13.3391 6.21359L12.6609 5.47879ZM13.3391 6.21359L12.9641 6.55975L12.2859 5.82494L12.6609 5.47879L13.3391 6.21359ZM12.2141 7.25205L11.4641 7.94436L10.7859 7.20956L11.5359 6.51725L12.2141 7.25205ZM10.7141 8.63667L9.96414 9.32898L9.28586 8.59417L10.0359 7.90187L10.7141 8.63667ZM9.21414 10.0213L8.83914 10.3674L8.16086 9.63264L8.53586 9.28648L9.21414 10.0213Z" fill="currentColor"/>
<path d="M8.50004 10L9.67761 8.91309" stroke="currentColor"/>
<ellipse cx="8.50009" cy="9.78971" rx="1.40625" ry="1.38785" fill="currentColor"/>
<path d="M2.53455 2.94698C2.33236 3.13506 2.32091 3.45143 2.50899 3.65363C2.69706 3.85582 3.01344 3.86726 3.21563 3.67919L2.53455 2.94698ZM3.21563 3.67919C4.57018 2.41922 6.52823 1.5 8.5001 1.5V0.5C6.23455 0.5 4.04178 1.54499 2.53455 2.94698L3.21563 3.67919Z" fill="currentColor"/>
<path d="M1.82086 4.41481L1.31758 4.41471L1.31758 4.95116L1.85954 4.91005L1.82086 4.41481ZM2.32411 2.6635C2.32411 2.38918 2.09878 2.16675 1.82083 2.16669C1.54287 2.16664 1.31755 2.38897 1.31755 2.66329L2.32411 2.6635ZM3.4816 4.787C3.75873 4.76598 3.96607 4.52721 3.94471 4.2537C3.92335 3.98019 3.68137 3.7755 3.40424 3.79653L3.4816 4.787ZM2.19339 4.74886C2.37737 4.54901 3.037 3.85256 3.22786 3.66738L2.52212 2.95891C2.30928 3.16541 1.63313 3.88001 1.44832 4.08076L2.19339 4.74886ZM2.32414 4.41491L2.32411 2.6635L1.31755 2.66329L1.31758 4.41471L2.32414 4.41491ZM1.85954 4.91005L3.4816 4.787L3.40424 3.79653L1.78217 3.91957L1.85954 4.91005Z" fill="currentColor"/>
<path d="M14.4655 2.94698C14.6677 3.13506 14.6792 3.45143 14.4911 3.65363C14.303 3.85582 13.9867 3.86726 13.7845 3.67919L14.4655 2.94698ZM13.7845 3.67919C12.4299 2.41922 10.4719 1.5 8.49999 1.5V0.5C10.7655 0.5 12.9583 1.54499 14.4655 2.94698L13.7845 3.67919Z" fill="currentColor"/>
<path d="M15.1791 4.41476L15.6824 4.41461L15.6825 4.95112L15.1404 4.90999L15.1791 4.41476ZM14.6757 2.66345C14.6757 2.38913 14.901 2.16669 15.179 2.16661C15.4569 2.16653 15.6823 2.38885 15.6823 2.66316L14.6757 2.66345ZM13.5182 4.78692C13.2411 4.76589 13.0338 4.52712 13.0551 4.25361C13.0765 3.9801 13.3185 3.77542 13.5956 3.79644L13.5182 4.78692ZM14.8066 4.74881C14.6226 4.54896 13.963 3.85251 13.7721 3.66733L14.4779 2.95885C14.6907 3.16536 15.3669 3.87995 15.5517 4.08071L14.8066 4.74881ZM14.6759 4.4149L14.6757 2.66345L15.6823 2.66316L15.6824 4.41461L14.6759 4.4149ZM15.1404 4.90999L13.5182 4.78692L13.5956 3.79644L15.2178 3.91952L15.1404 4.90999Z" fill="currentColor"/>
</svg>
