<svg width="17" height="11" viewBox="0 0 17 11" fill="none" xmlns="http://www.w3.org/2000/svg">
<path d="M7.55294 2.24896C7.84497 2.23247 8.1425 2.22398 8.44442 2.22398C12.3718 2.22398 15.5555 3.66134 15.5555 5.43441C15.5555 6.57773 14.2317 7.58146 12.2384 8.15023M7.55294 2.24896L8.44442 1M7.55294 2.24896L8.44442 3.46802M9.37737 8.61746C9.07206 8.63553 8.76065 8.64484 8.44442 8.64484C4.51707 8.64484 1.33331 7.20748 1.33331 5.43441C1.33331 4.29109 2.65711 3.28736 4.65045 2.71859M9.37737 8.61746L8.44442 7.42087M9.37737 8.61746L8.44442 9.88889" stroke="white" stroke-linecap="round"/>
<ellipse cx="8.4445" cy="5.44443" rx="0.927536" ry="0.888889" fill="currentColor"/>
</svg>
