{
  "accessors": [
    {
      "bufferView": 2,
      "componentType": 5126,
      "count": 65532,
      "max": [
        1244.53125,
        1331.25,
        354.8826904296875
      ],
      "min": [
        -1259.375,
        -2043.75,
        -333.7890625
      ],
      "type": "VEC3"
    },
    {
      "bufferView": 2,
      "byteOffset": 786384,
      "componentType": 5126,
      "count": 65532,
      "max": [
        1,
        1,
        1
      ],
      "min": [
        -1,
        -1,
        -1
      ],
      "type": "VEC3"
    },
    {
      "bufferView": 3,
      "componentType": 5126,
      "count": 65532,
      "max": [
        1,
        1,
        1,
        1
      ],
      "min": [
        -1,
        -1,
        -1,
        -1
      ],
      "type": "VEC4"
    },
    {
      "bufferView": 1,
      "componentType": 5126,
      "count": 65532,
      "max": [
        0.9970703125,
        1.0001182556152344
      ],
      "min": [
        0.000644683837890625,
        0.0009765625
      ],
      "type": "VEC2"
    },
    {
      "bufferView": 1,
      "byteOffset": 524256,
      "componentType": 5126,
      "count": 65532,
      "max": [
        0.9990234375,
        0.99889659881591797
      ],
      "min": [
        0.0012454986572265625,
        0.00244140625
      ],
      "type": "VEC2"
    },
    {
      "bufferView": 1,
      "byteOffset": 1048512,
      "componentType": 5126,
      "count": 65532,
      "max": [
        0.9970703125,
        1.0001182556152344
      ],
      "min": [
        0.000644683837890625,
        0.0009765625
      ],
      "type": "VEC2"
    },
    {
      "bufferView": 0,
      "componentType": 5125,
      "count": 137802,
      "max": [
        65531
      ],
      "min": [
        0
      ],
      "type": "SCALAR"
    },
    {
      "bufferView": 2,
      "byteOffset": 1572768,
      "componentType": 5126,
      "count": 23436,
      "max": [
        1194.53125,
        1217.96875,
        417.5780029296875
      ],
      "min": [
        -1257.03125,
        -2050,
        -354.4921875
      ],
      "type": "VEC3"
    },
    {
      "bufferView": 2,
      "byteOffset": 1854000,
      "componentType": 5126,
      "count": 23436,
      "max": [
        1,
        1,
        1
      ],
      "min": [
        -1,
        -1,
        -1
      ],
      "type": "VEC3"
    },
    {
      "bufferView": 3,
      "byteOffset": 1048512,
      "componentType": 5126,
      "count": 23436,
      "max": [
        1,
        1,
        1,
        1
      ],
      "min": [
        -1,
        -1,
        -1,
        -1
      ],
      "type": "VEC4"
    },
    {
      "bufferView": 1,
      "byteOffset": 1572768,
      "componentType": 5126,
      "count": 23436,
      "max": [
        0.99755859375,
        0.99843406677246094
      ],
      "min": [
        0.00072383880615234375,
        0.00244140625
      ],
      "type": "VEC2"
    },
    {
      "bufferView": 1,
      "byteOffset": 1760256,
      "componentType": 5126,
      "count": 23436,
      "max": [
        0.99951171875,
        0.99886608123779297
      ],
      "min": [
        0.001186370849609375,
        0.0009765625
      ],
      "type": "VEC2"
    },
    {
      "bufferView": 1,
      "byteOffset": 1947744,
      "componentType": 5126,
      "count": 23436,
      "max": [
        0.99755859375,
        0.99843406677246094
      ],
      "min": [
        0.00072383880615234375,
        0.00244140625
      ],
      "type": "VEC2"
    },
    {
      "bufferView": 0,
      "byteOffset": 551208,
      "componentType": 5125,
      "count": 51789,
      "max": [
        23435
      ],
      "min": [
        0
      ],
      "type": "SCALAR"
    },
    {
      "bufferView": 2,
      "byteOffset": 2135232,
      "componentType": 5126,
      "count": 37371,
      "max": [
        587.890625,
        743.75006103515625,
        -192.0897216796875
      ],
      "min": [
        -587.890625,
        -982.81243896484375,
        -448.04702758789062
      ],
      "type": "VEC3"
    },
    {
      "bufferView": 2,
      "byteOffset": 2583684,
      "componentType": 5126,
      "count": 37371,
      "max": [
        1,
        1,
        1
      ],
      "min": [
        -1,
        -1,
        -1
      ],
      "type": "VEC3"
    },
    {
      "bufferView": 3,
      "byteOffset": 1423488,
      "componentType": 5126,
      "count": 37371,
      "max": [
        1,
        1,
        1,
        1
      ],
      "min": [
        -1,
        -1,
        -1,
        -1
      ],
      "type": "VEC4"
    },
    {
      "bufferView": 1,
      "byteOffset": 2135232,
      "componentType": 5126,
      "count": 37371,
      "max": [
        0.99609375,
        0.99804496765136719
      ],
      "min": [
        0.0012750625610351562,
        0.00244140625
      ],
      "type": "VEC2"
    },
    {
      "bufferView": 1,
      "byteOffset": 2434200,
      "componentType": 5126,
      "count": 37371,
      "max": [
        0.99609375,
        0.99804496765136719
      ],
      "min": [
        0.0012750625610351562,
        0.00244140625
      ],
      "type": "VEC2"
    },
    {
      "bufferView": 1,
      "byteOffset": 2733168,
      "componentType": 5126,
      "count": 37371,
      "max": [
        0.99609375,
        0.99804496765136719
      ],
      "min": [
        0.0012750625610351562,
        0.00244140625
      ],
      "type": "VEC2"
    },
    {
      "bufferView": 0,
      "byteOffset": 758364,
      "componentType": 5125,
      "count": 85806,
      "max": [
        37370
      ],
      "min": [
        0
      ],
      "type": "SCALAR"
    },
    {
      "bufferView": 2,
      "byteOffset": 3032136,
      "componentType": 5126,
      "count": 65533,
      "max": [
        1210.9375,
        1207.03125,
        283.00784301757812
      ],
      "min": [
        -1257.03125,
        -2060.9375,
        -309.76559448242188
      ],
      "type": "VEC3"
    },
    {
      "bufferView": 2,
      "byteOffset": 3818532,
      "componentType": 5126,
      "count": 65533,
      "max": [
        1,
        1,
        1
      ],
      "min": [
        -1,
        -1,
        -1
      ],
      "type": "VEC3"
    },
    {
      "bufferView": 3,
      "byteOffset": 2021424,
      "componentType": 5126,
      "count": 65533,
      "max": [
        1,
        1,
        1,
        1
      ],
      "min": [
        -1,
        -1,
        -1,
        -1
      ],
      "type": "VEC4"
    },
    {
      "bufferView": 1,
      "byteOffset": 3032136,
      "componentType": 5126,
      "count": 65533,
      "max": [
        0.998046875,
        0.99912929534912109
      ],
      "min": [
        0.0023517608642578125,
        0.00146484375
      ],
      "type": "VEC2"
    },
    {
      "bufferView": 1,
      "byteOffset": 3556400,
      "componentType": 5126,
      "count": 65533,
      "max": [
        0.998046875,
        0.99912929534912109
      ],
      "min": [
        0.0023517608642578125,
        0.00146484375
      ],
      "type": "VEC2"
    },
    {
      "bufferView": 1,
      "byteOffset": 4080664,
      "componentType": 5126,
      "count": 65533,
      "max": [
        0.998046875,
        0.99912929534912109
      ],
      "min": [
        0.0023517608642578125,
        0.00146484375
      ],
      "type": "VEC2"
    },
    {
      "bufferView": 0,
      "byteOffset": 1101588,
      "componentType": 5125,
      "count": 153120,
      "max": [
        65532
      ],
      "min": [
        0
      ],
      "type": "SCALAR"
    },
    {
      "bufferView": 2,
      "byteOffset": 4604928,
      "componentType": 5126,
      "count": 40518,
      "max": [
        1210.9375,
        1159.375,
        276.17190551757812
      ],
      "min": [
        -1257.03125,
        -2065.625,
        -302.734375
      ],
      "type": "VEC3"
    },
    {
      "bufferView": 2,
      "byteOffset": 5091144,
      "componentType": 5126,
      "count": 40518,
      "max": [
        1,
        1,
        1
      ],
      "min": [
        -1,
        -1,
        -1
      ],
      "type": "VEC3"
    },
    {
      "bufferView": 3,
      "byteOffset": 3069952,
      "componentType": 5126,
      "count": 40518,
      "max": [
        1,
        1,
        1,
        1
      ],
      "min": [
        -1,
        -1,
        -1,
        -1
      ],
      "type": "VEC4"
    },
    {
      "bufferView": 1,
      "byteOffset": 4604928,
      "componentType": 5126,
      "count": 40518,
      "max": [
        0.9931640625,
        0.9717864990234375
      ],
      "min": [
        0.00940704345703125,
        0.00244140625
      ],
      "type": "VEC2"
    },
    {
      "bufferView": 1,
      "byteOffset": 4929072,
      "componentType": 5126,
      "count": 40518,
      "max": [
        0.9931640625,
        0.9717864990234375
      ],
      "min": [
        0.00940704345703125,
        0.00244140625
      ],
      "type": "VEC2"
    },
    {
      "bufferView": 1,
      "byteOffset": 5253216,
      "componentType": 5126,
      "count": 40518,
      "max": [
        0.9931640625,
        0.9717864990234375
      ],
      "min": [
        0.00940704345703125,
        0.00244140625
      ],
      "type": "VEC2"
    },
    {
      "bufferView": 0,
      "byteOffset": 1714068,
      "componentType": 5125,
      "count": 106128,
      "max": [
        40517
      ],
      "min": [
        0
      ],
      "type": "SCALAR"
    },
    {
      "bufferView": 2,
      "byteOffset": 5577360,
      "componentType": 5126,
      "count": 385,
      "max": [
        107.6171875,
        -7.3485860824584961,
        259.765625
      ],
      "min": [
        -1251.5625,
        -1165.625,
        -285.54690551757812
      ],
      "type": "VEC3"
    },
    {
      "bufferView": 2,
      "byteOffset": 5581980,
      "componentType": 5126,
      "count": 385,
      "max": [
        0.93508100509643555,
        0.42560791969299316,
        1
      ],
      "min": [
        -0.9290732741355896,
        -1,
        -1
      ],
      "type": "VEC3"
    },
    {
      "bufferView": 3,
      "byteOffset": 3718240,
      "componentType": 5126,
      "count": 385,
      "max": [
        1,
        0.43772205710411072,
        0.86994558572769165,
        1
      ],
      "min": [
        -1,
        -0.43103277683258057,
        -0.87613791227340698,
        1
      ],
      "type": "VEC4"
    },
    {
      "bufferView": 1,
      "byteOffset": 5577360,
      "componentType": 5126,
      "count": 385,
      "max": [
        0.9609375,
        0.8746337890625
      ],
      "min": [
        0.034576416015625,
        0.1455078125
      ],
      "type": "VEC2"
    },
    {
      "bufferView": 0,
      "byteOffset": 2138580,
      "componentType": 5125,
      "count": 984,
      "max": [
        384
      ],
      "min": [
        0
      ],
      "type": "SCALAR"
    },
    {
      "bufferView": 2,
      "byteOffset": 5586600,
      "componentType": 5126,
      "count": 65533,
      "max": [
        1244.53125,
        1331.25,
        354.8826904296875
      ],
      "min": [
        -1259.375,
        -2043.75,
        -333.7890625
      ],
      "type": "VEC3"
    },
    {
      "bufferView": 2,
      "byteOffset": 6372996,
      "componentType": 5126,
      "count": 65533,
      "max": [
        1,
        1,
        1
      ],
      "min": [
        -1,
        -1,
        -1
      ],
      "type": "VEC3"
    },
    {
      "bufferView": 3,
      "byteOffset": 3724400,
      "componentType": 5126,
      "count": 65533,
      "max": [
        1,
        1,
        1,
        1
      ],
      "min": [
        -1,
        -1,
        -1,
        -1
      ],
      "type": "VEC4"
    },
    {
      "bufferView": 1,
      "byteOffset": 5580440,
      "componentType": 5126,
      "count": 65533,
      "max": [
        0.9990234375,
        0.99889659881591797
      ],
      "min": [
        0.0012454986572265625,
        0.00244140625
      ],
      "type": "VEC2"
    },
    {
      "bufferView": 0,
      "byteOffset": 2142516,
      "componentType": 5125,
      "count": 137787,
      "max": [
        65532
      ],
      "min": [
        0
      ],
      "type": "SCALAR"
    },
    {
      "bufferView": 2,
      "byteOffset": 7159392,
      "componentType": 5126,
      "count": 23445,
      "max": [
        1194.53125,
        1217.96875,
        417.5780029296875
      ],
      "min": [
        -1257.03125,
        -2050,
        -354.4921875
      ],
      "type": "VEC3"
    },
    {
      "bufferView": 2,
      "byteOffset": 7440732,
      "componentType": 5126,
      "count": 23445,
      "max": [
        1,
        1,
        1
      ],
      "min": [
        -1,
        -1,
        -1
      ],
      "type": "VEC3"
    },
    {
      "bufferView": 3,
      "byteOffset": 4772928,
      "componentType": 5126,
      "count": 23445,
      "max": [
        1,
        1,
        1,
        1
      ],
      "min": [
        -1,
        -1,
        -1,
        -1
      ],
      "type": "VEC4"
    },
    {
      "bufferView": 1,
      "byteOffset": 6104704,
      "componentType": 5126,
      "count": 23445,
      "max": [
        0.99951171875,
        0.99886608123779297
      ],
      "min": [
        0.001186370849609375,
        0.0009765625
      ],
      "type": "VEC2"
    },
    {
      "bufferView": 0,
      "byteOffset": 2693664,
      "componentType": 5125,
      "count": 51804,
      "max": [
        23444
      ],
      "min": [
        0
      ],
      "type": "SCALAR"
    }
  ],
  "asset": {
    "extras": {
      "author": "Stym (https://sketchfab.com/Stym)",
      "license": "CC-BY-SA-4.0 (http://creativecommons.org/licenses/by-sa/4.0/)",
      "source": "https://sketchfab.com/3d-models/millennium-falcon-6a27ba566af142708743ccb8b4668d4b",
      "title": "Millennium Falcon"
    },
    "generator": "Sketchfab-4.49.1",
    "version": "2.0"
  },
  "bufferViews": [
    {
      "buffer": 0,
      "byteLength": 2900880,
      "byteOffset": 0,
      "name": "floatBufferViews",
      "target": 34963
    },
    {
      "buffer": 0,
      "byteLength": 6292264,
      "byteOffset": 2900880,
      "byteStride": 8,
      "name": "floatBufferViews",
      "target": 34962
    },
    {
      "buffer": 0,
      "byteLength": 7722072,
      "byteOffset": 9193144,
      "byteStride": 12,
      "name": "floatBufferViews",
      "target": 34962
    },
    {
      "buffer": 0,
      "byteLength": 5148048,
      "byteOffset": 16915216,
      "byteStride": 16,
      "name": "floatBufferViews",
      "target": 34962
    }
  ],
  "buffers": [
    {
      "byteLength": 22063264,
      "uri": "scene.bin"
    }
  ],
  "images": [
    {
      "uri": "textures/Tex_0095_3.dds_metallicRoughness.png"
    },
    {
      "uri": "textures/Tex_0095_3.dds_baseColor.png"
    },
    {
      "uri": "textures/Tex_0095_1.dds_normal.png"
    },
    {
      "uri": "textures/Tex_0095_1.dds_baseColor.png"
    },
    {
      "uri": "textures/Tex_0095_1.dds_metallicRoughness.png"
    },
    {
      "uri": "textures/Tex_0095_2.dds_0_metallicRoughness.png"
    },
    {
      "uri": "textures/Tex_0095_2.dds_0_baseColor.png"
    },
    {
      "uri": "textures/Tex_0095_2.dds_normal.png"
    },
    {
      "uri": "textures/Tex_0095_2.dds_baseColor.png"
    },
    {
      "uri": "textures/Tex_0095_2.dds_emissive.png"
    },
    {
      "uri": "textures/Tex_0095_2.dds_metallicRoughness.png"
    }
  ],
  "materials": [
    {
      "doubleSided": true,
      "emissiveFactor": [
        0,
        0,
        0
      ],
      "name": "Tex_0095_1.dds",
      "normalTexture": {
        "index": 2,
        "scale": 1,
        "texCoord": 1
      },
      "pbrMetallicRoughness": {
        "baseColorFactor": [
          1,
          1,
          1,
          1
        ],
        "baseColorTexture": {
          "index": 3,
          "texCoord": 0
        },
        "metallicFactor": 1,
        "metallicRoughnessTexture": {
          "index": 4,
          "texCoord": 0
        },
        "roughnessFactor": 1
      }
    },
    {
      "doubleSided": true,
      "emissiveFactor": [
        0,
        0,
        0
      ],
      "name": "Tex_0095_3.dds",
      "pbrMetallicRoughness": {
        "baseColorFactor": [
          1,
          1,
          1,
          1
        ],
        "baseColorTexture": {
          "index": 1,
          "texCoord": 0
        },
        "metallicFactor": 1,
        "metallicRoughnessTexture": {
          "index": 0,
          "texCoord": 0
        },
        "roughnessFactor": 1
      }
    },
    {
      "doubleSided": true,
      "emissiveFactor": [
        1,
        1,
        1
      ],
      "emissiveTexture": {
        "index": 9,
        "texCoord": 0
      },
      "name": "Tex_0095_2.dds",
      "normalTexture": {
        "index": 7,
        "scale": 1,
        "texCoord": 0
      },
      "pbrMetallicRoughness": {
        "baseColorFactor": [
          1,
          1,
          1,
          1
        ],
        "baseColorTexture": {
          "index": 8,
          "texCoord": 0
        },
        "metallicFactor": 1,
        "metallicRoughnessTexture": {
          "index": 10,
          "texCoord": 0
        },
        "roughnessFactor": 1
      }
    },
    {
      "alphaMode": "BLEND",
      "doubleSided": true,
      "emissiveFactor": [
        0,
        0,
        0
      ],
      "name": "Tex_5040_1.dds",
      "pbrMetallicRoughness": {
        "baseColorFactor": [
          0,
          0,
          0,
          0.65000000000000002
        ],
        "metallicFactor": 0,
        "roughnessFactor": 0
      }
    },
    {
      "alphaMode": "BLEND",
      "doubleSided": true,
      "emissiveFactor": [
        0,
        0,
        0
      ],
      "name": "Tex_0095_2.dds_0",
      "pbrMetallicRoughness": {
        "baseColorFactor": [
          1,
          1,
          1,
          1
        ],
        "baseColorTexture": {
          "index": 6,
          "texCoord": 0
        },
        "metallicFactor": 1,
        "metallicRoughnessTexture": {
          "index": 5,
          "texCoord": 0
        },
        "roughnessFactor": 1
      }
    }
  ],
  "meshes": [
    {
      "name": "Mesh_0067_Tex_0095_1.dds_0",
      "primitives": [
        {
          "attributes": {
            "NORMAL": 1,
            "POSITION": 0,
            "TANGENT": 2,
            "TEXCOORD_0": 3,
            "TEXCOORD_1": 4,
            "TEXCOORD_2": 5
          },
          "indices": 6,
          "material": 0,
          "mode": 4
        }
      ]
    },
    {
      "name": "Mesh_0067_Tex_0095_1.dds_0",
      "primitives": [
        {
          "attributes": {
            "NORMAL": 8,
            "POSITION": 7,
            "TANGENT": 9,
            "TEXCOORD_0": 10,
            "TEXCOORD_1": 11,
            "TEXCOORD_2": 12
          },
          "indices": 13,
          "material": 0,
          "mode": 4
        }
      ]
    },
    {
      "name": "Mesh_0069_Tex_0095_3.dds_0",
      "primitives": [
        {
          "attributes": {
            "NORMAL": 15,
            "POSITION": 14,
            "TANGENT": 16,
            "TEXCOORD_0": 17,
            "TEXCOORD_1": 18,
            "TEXCOORD_2": 19
          },
          "indices": 20,
          "material": 1,
          "mode": 4
        }
      ]
    },
    {
      "name": "Mesh_0068_Tex_0095_2.dds_0",
      "primitives": [
        {
          "attributes": {
            "NORMAL": 22,
            "POSITION": 21,
            "TANGENT": 23,
            "TEXCOORD_0": 24,
            "TEXCOORD_1": 25,
            "TEXCOORD_2": 26
          },
          "indices": 27,
          "material": 2,
          "mode": 4
        }
      ]
    },
    {
      "name": "Mesh_0068_Tex_0095_2.dds_0",
      "primitives": [
        {
          "attributes": {
            "NORMAL": 29,
            "POSITION": 28,
            "TANGENT": 30,
            "TEXCOORD_0": 31,
            "TEXCOORD_1": 32,
            "TEXCOORD_2": 33
          },
          "indices": 34,
          "material": 2,
          "mode": 4
        }
      ]
    },
    {
      "name": "Mesh_0546_Tex_5040_1.dds_0",
      "primitives": [
        {
          "attributes": {
            "NORMAL": 36,
            "POSITION": 35,
            "TANGENT": 37,
            "TEXCOORD_0": 38
          },
          "indices": 39,
          "material": 3,
          "mode": 4
        }
      ]
    },
    {
      "name": "Mesh_0067_Tex_0095_2.dds_0",
      "primitives": [
        {
          "attributes": {
            "NORMAL": 41,
            "POSITION": 40,
            "TANGENT": 42,
            "TEXCOORD_0": 43
          },
          "indices": 44,
          "material": 4,
          "mode": 4
        }
      ]
    },
    {
      "name": "Mesh_0067_Tex_0095_2.dds_0",
      "primitives": [
        {
          "attributes": {
            "NORMAL": 46,
            "POSITION": 45,
            "TANGENT": 47,
            "TEXCOORD_0": 48
          },
          "indices": 49,
          "material": 4,
          "mode": 4
        }
      ]
    }
  ],
  "nodes": [
    {
      "children": [
        1
      ],
      "name": "RootNode (gltf orientation matrix)",
      "rotation": [
        -0.70710678118654746,
        -0,
        -0,
        0.70710678118654757
      ]
    },
    {
      "children": [
        2
      ],
      "name": "RootNode (model correction matrix)"
    },
    {
      "children": [
        3
      ],
      "matrix": [
        1,
        0,
        0,
        0,
        0,
        0,
        1,
        0,
        0,
        -1,
        0,
        0,
        0,
        0,
        0,
        1
      ],
      "name": "c2e383d4b8b94de7a9b69c5ffca3aec9.fbx"
    },
    {
      "children": [
        4,
        7,
        9,
        12,
        14
      ],
      "name": "RootNode"
    },
    {
      "children": [
        5,
        6
      ],
      "matrix": [
        1,
        0,
        0,
        0,
        0,
        2.2204460492503131e-16,
        -1,
        0,
        0,
        1,
        2.2204460492503131e-16,
        0,
        0,
        0,
        0,
        1
      ],
      "name": "Mesh_0067"
    },
    {
      "mesh": 0,
      "name": "Mesh_0067_Tex_0095_1.dds_0"
    },
    {
      "mesh": 1,
      "name": "Mesh_0067_Tex_0095_1.dds_0"
    },
    {
      "children": [
        8
      ],
      "matrix": [
        1,
        0,
        0,
        0,
        0,
        2.2204460492503131e-16,
        -1,
        0,
        0,
        1,
        2.2204460492503131e-16,
        0,
        0,
        0,
        0,
        1
      ],
      "name": "Mesh_0069"
    },
    {
      "mesh": 2,
      "name": "Mesh_0069_Tex_0095_3.dds_0"
    },
    {
      "children": [
        10,
        11
      ],
      "matrix": [
        1,
        0,
        0,
        0,
        0,
        2.2204460492503131e-16,
        -1,
        0,
        0,
        1,
        2.2204460492503131e-16,
        0,
        0,
        0,
        0,
        1
      ],
      "name": "Mesh_0068"
    },
    {
      "mesh": 3,
      "name": "Mesh_0068_Tex_0095_2.dds_0"
    },
    {
      "mesh": 4,
      "name": "Mesh_0068_Tex_0095_2.dds_0"
    },
    {
      "children": [
        13
      ],
      "matrix": [
        1,
        0,
        0,
        0,
        0,
        2.2204460492503131e-16,
        -1,
        0,
        0,
        1,
        2.2204460492503131e-16,
        0,
        0,
        0,
        0,
        1
      ],
      "name": "Mesh_0546"
    },
    {
      "mesh": 5,
      "name": "Mesh_0546_Tex_5040_1.dds_0"
    },
    {
      "children": [
        15,
        16
      ],
      "matrix": [
        1,
        0,
        0,
        0,
        0,
        2.2204460492503131e-16,
        -1,
        0,
        0,
        1,
        2.2204460492503131e-16,
        0,
        0,
        0,
        0,
        1
      ],
      "name": "Mesh_0067"
    },
    {
      "mesh": 6,
      "name": "Mesh_0067_Tex_0095_2.dds_0"
    },
    {
      "mesh": 7,
      "name": "Mesh_0067_Tex_0095_2.dds_0"
    }
  ],
  "samplers": [
    {
      "magFilter": 9729,
      "minFilter": 9987,
      "wrapS": 10497,
      "wrapT": 10497
    }
  ],
  "scene": 0,
  "scenes": [
    {
      "name": "OSG_Scene",
      "nodes": [
        0
      ]
    }
  ],
  "textures": [
    {
      "sampler": 0,
      "source": 0
    },
    {
      "sampler": 0,
      "source": 1
    },
    {
      "sampler": 0,
      "source": 2
    },
    {
      "sampler": 0,
      "source": 3
    },
    {
      "sampler": 0,
      "source": 4
    },
    {
      "sampler": 0,
      "source": 5
    },
    {
      "sampler": 0,
      "source": 6
    },
    {
      "sampler": 0,
      "source": 7
    },
    {
      "sampler": 0,
      "source": 8
    },
    {
      "sampler": 0,
      "source": 9
    },
    {
      "sampler": 0,
      "source": 10
    }
  ]
}

