{
  "accessors": [
    {
      "bufferView": 2,
      "componentType": 5126,
      "count": 144,
      "max": [0.01882999949157238, -1.0041459798812866, 0.47984299063682556],
      "min": [-0.0157919991761446, -1.1157339811325073, 0.2324099987745285],
      "type": "VEC3"
    },
    {
      "bufferView": 2,
      "byteOffset": 1728,
      "componentType": 5126,
      "count": 144,
      "max": [0.98481237888336182, 0.99553012847900391, 0.85904133319854736],
      "min": [-0.98482966423034668, -0.99553000926971436, -0.85904091596603394],
      "type": "VEC3"
    },
    {
      "bufferView": 1,
      "componentType": 5126,
      "count": 144,
      "max": [0.5182039737701416, 0.50139403343200684],
      "min": [0.49260899424552917, 0.44826900959014893],
      "type": "VEC2"
    },
    {
      "bufferView": 0,
      "componentType": 5125,
      "count": 432,
      "max": [143],
      "min": [0],
      "type": "SCALAR"
    },
    {
      "bufferView": 2,
      "byteOffset": 3456,
      "componentType": 5126,
      "count": 5121,
      "max": [0.4654650092124939, 0.2846750020980835, 0.23540699481964111],
      "min": [-0.46546900272369385, -1.1863830089569092, 0],
      "type": "VEC3"
    },
    {
      "bufferView": 2,
      "byteOffset": 64908,
      "componentType": 5126,
      "count": 5121,
      "max": [0.99854660034179688, 0.99707067012786865, 0.99661087989807129],
      "min": [-0.99853807687759399, -0.99707168340682983, -0.99661052227020264],
      "type": "VEC3"
    },
    {
      "bufferView": 1,
      "byteOffset": 1152,
      "componentType": 5126,
      "count": 5121,
      "max": [0.47667598724365234, 0.47152900695800781],
      "min": [0.46462699770927429, 0.45948004722595215],
      "type": "VEC2"
    },
    {
      "bufferView": 0,
      "byteOffset": 1728,
      "componentType": 5125,
      "count": 12312,
      "max": [5120],
      "min": [0],
      "type": "SCALAR"
    },
    {
      "bufferView": 2,
      "byteOffset": 126360,
      "componentType": 5126,
      "count": 391,
      "max": [-0.9846770167350769, 0.75219500064849854, 0.52598899602890015],
      "min": [-1.1472879648208618, -0.29351699352264404, 0.29961299896240234],
      "type": "VEC3"
    },
    {
      "bufferView": 2,
      "byteOffset": 131052,
      "componentType": 5126,
      "count": 391,
      "max": [0.99959290027618408, 0.99759215116500854, 0.99513930082321167],
      "min": [-0.99959051609039307, -0.99545937776565552, -0.99491333961486816],
      "type": "VEC3"
    },
    {
      "bufferView": 1,
      "byteOffset": 42120,
      "componentType": 5126,
      "count": 391,
      "max": [0.03467399999499321, 0.72104400396347046],
      "min": [0.0068879998289048672, 0.54283601045608521],
      "type": "VEC2"
    },
    {
      "bufferView": 0,
      "byteOffset": 50976,
      "componentType": 5125,
      "count": 1194,
      "max": [390],
      "min": [0],
      "type": "SCALAR"
    },
    {
      "bufferView": 2,
      "byteOffset": 135744,
      "componentType": 5126,
      "count": 30551,
      "max": [1.4954479932785034, 2.1639909744262695, 1.7185289859771729],
      "min": [-1.4954530000686646, -2.2388060092926025, 0.38251098990440369],
      "type": "VEC3"
    },
    {
      "bufferView": 2,
      "byteOffset": 502356,
      "componentType": 5126,
      "count": 30551,
      "max": [1, 0.99931997060775757, 0.9999924898147583],
      "min": [-1, -0.99981886148452759, -0.99999356269836426],
      "type": "VEC3"
    },
    {
      "bufferView": 1,
      "byteOffset": 45248,
      "componentType": 5126,
      "count": 30551,
      "max": [0.98436594009399414, 0.98592901229858398],
      "min": [0.011536998674273491, 0.0072339773178100586],
      "type": "VEC2"
    },
    {
      "bufferView": 0,
      "byteOffset": 55752,
      "componentType": 5125,
      "count": 111780,
      "max": [30550],
      "min": [0],
      "type": "SCALAR"
    },
    {
      "bufferView": 2,
      "byteOffset": 868968,
      "componentType": 5126,
      "count": 5880,
      "max": [1.5270769596099854, 0.88541501760482788, 1.5341687202453613],
      "min": [-1.5270769596099854, -1.5037519931793213, 0.27830499410629272],
      "type": "VEC3"
    },
    {
      "bufferView": 2,
      "byteOffset": 939528,
      "componentType": 5126,
      "count": 5880,
      "max": [0.99990475177764893, 0.99553453922271729, 0.99997591972351074],
      "min": [-0.99993807077407837, -0.99907398223876953, -0.99923563003540039],
      "type": "VEC3"
    },
    {
      "bufferView": 1,
      "byteOffset": 289656,
      "componentType": 5126,
      "count": 5880,
      "max": [0.99453097581863403, 0.98250102996826172],
      "min": [0.0076419999822974205, 0.16492307186126709],
      "type": "VEC2"
    },
    {
      "bufferView": 0,
      "byteOffset": 502872,
      "componentType": 5125,
      "count": 17778,
      "max": [5879],
      "min": [0],
      "type": "SCALAR"
    },
    {
      "bufferView": 2,
      "byteOffset": 1010088,
      "componentType": 5126,
      "count": 12264,
      "max": [0.53755098581314087, 0.27305999398231506, 0.73230397701263428],
      "min": [-0.53755497932434082, -1.5121409893035889, 0.040483001619577408],
      "type": "VEC3"
    },
    {
      "bufferView": 2,
      "byteOffset": 1157256,
      "componentType": 5126,
      "count": 12264,
      "max": [1, 0.99978363513946533, 0.99992424249649048],
      "min": [-1, -0.99983125925064087, -0.99992936849594116],
      "type": "VEC3"
    },
    {
      "bufferView": 1,
      "byteOffset": 336696,
      "componentType": 5126,
      "count": 12264,
      "max": [0.91185802221298218, 0.68599998950958252],
      "min": [0.41933798789978027, 0.41130197048187256],
      "type": "VEC2"
    },
    {
      "bufferView": 0,
      "byteOffset": 573984,
      "componentType": 5125,
      "count": 34014,
      "max": [12263],
      "min": [0],
      "type": "SCALAR"
    },
    {
      "bufferView": 2,
      "byteOffset": 1304424,
      "componentType": 5126,
      "count": 4310,
      "max": [1.1472979784011841, 2.2388069629669189, 1.6890460252761841],
      "min": [-0.84537601470947266, -0.88335698843002319, 0.19763599336147308],
      "type": "VEC3"
    },
    {
      "bufferView": 2,
      "byteOffset": 1356144,
      "componentType": 5126,
      "count": 4310,
      "max": [1, 0.99877262115478516, 0.99999320507049561],
      "min": [-1, -0.99997621774673462, -0.99999320507049561],
      "type": "VEC3"
    },
    {
      "bufferView": 1,
      "byteOffset": 434808,
      "componentType": 5126,
      "count": 4310,
      "max": [0.87382799386978149, 0.97138500213623047],
      "min": [0.0068879998289048672, 0.015833020210266113],
      "type": "VEC2"
    },
    {
      "bufferView": 0,
      "byteOffset": 710040,
      "componentType": 5125,
      "count": 19884,
      "max": [4309],
      "min": [0],
      "type": "SCALAR"
    },
    {
      "bufferView": 2,
      "byteOffset": 1407864,
      "componentType": 5126,
      "count": 825,
      "max": [1.4894319772720337, 0.54698902368545532, 1.5297043323516846],
      "min": [-1.4894360303878784, -1.4934430122375488, 0.58535099029541016],
      "type": "VEC3"
    },
    {
      "bufferView": 2,
      "byteOffset": 1417764,
      "componentType": 5126,
      "count": 825,
      "max": [0.99642884731292725, 0.86349004507064819, 0.92950469255447388],
      "min": [-0.99641287326812744, -0.70785248279571533, -0.45729532837867737],
      "type": "VEC3"
    },
    {
      "bufferView": 1,
      "byteOffset": 469288,
      "componentType": 5126,
      "count": 825,
      "max": [1, 1],
      "min": [0, 0],
      "type": "VEC2"
    },
    {
      "bufferView": 0,
      "byteOffset": 789576,
      "componentType": 5125,
      "count": 4170,
      "max": [824],
      "min": [0],
      "type": "SCALAR"
    }
  ],
  "asset": {
    "extras": {
      "author": "PAK Deftech (https://sketchfab.com/PakDeftech)",
      "license": "CC-BY-4.0 (http://creativecommons.org/licenses/by/4.0/)",
      "source": "https://sketchfab.com/3d-models/douglas-a-4-skyhawk-d3f19d80a2ed477589cc1d0d39a5b255",
      "title": "Douglas A-4 Skyhawk"
    },
    "generator": "Sketchfab-7.75.0",
    "version": "2.0"
  },
  "bufferViews": [
    {
      "buffer": 0,
      "byteLength": 806256,
      "byteOffset": 0,
      "name": "floatBufferViews",
      "target": 34963
    },
    {
      "buffer": 0,
      "byteLength": 475888,
      "byteOffset": 806256,
      "byteStride": 8,
      "name": "floatBufferViews",
      "target": 34962
    },
    {
      "buffer": 0,
      "byteLength": 1427664,
      "byteOffset": 1282144,
      "byteStride": 12,
      "name": "floatBufferViews",
      "target": 34962
    }
  ],
  "buffers": [
    {
      "byteLength": 2709808,
      "uri": "DouglasA4Skyhawk.bin"
    }
  ],
  "images": [
    {
      "uri": "Body_baseColor.jpeg"
    }
  ],
  "materials": [
    {
      "doubleSided": true,
      "emissiveFactor": [0, 0, 0],
      "name": "Body",
      "pbrMetallicRoughness": {
        "baseColorFactor": [
          0.51075758500532675,
          0.51075758500532675,
          0.51075758500532675,
          1
        ],
        "baseColorTexture": {
          "index": 0,
          "texCoord": 0
        },
        "metallicFactor": 0.35924243349017521,
        "roughnessFactor": 0.33500000924775097
      }
    },
    {
      "alphaMode": "BLEND",
      "doubleSided": true,
      "emissiveFactor": [0, 0, 0],
      "name": "Glass",
      "pbrMetallicRoughness": {
        "baseColorFactor": [1, 1, 1, 0.17136364561138731],
        "metallicFactor": 1,
        "roughnessFactor": 0.18015150590376416
      }
    },
    {
      "doubleSided": true,
      "emissiveFactor": [0, 0, 0],
      "name": "metal",
      "pbrMetallicRoughness": {
        "baseColorFactor": [
          0.6752197057550603,
          0.6752197057550603,
          0.6752197057550603,
          1
        ],
        "metallicFactor": 1,
        "roughnessFactor": 0.40166667591441763
      }
    },
    {
      "doubleSided": true,
      "emissiveFactor": [0, 0, 0],
      "name": "wheels",
      "pbrMetallicRoughness": {
        "baseColorFactor": [1, 1, 1, 1],
        "baseColorTexture": {
          "index": 0,
          "texCoord": 0
        },
        "metallicFactor": 0,
        "roughnessFactor": 1
      }
    }
  ],
  "meshes": [
    {
      "primitives": [
        {
          "attributes": {
            "NORMAL": 1,
            "POSITION": 0,
            "TEXCOORD_0": 2
          },
          "indices": 3,
          "material": 2,
          "mode": 4
        }
      ]
    },
    {
      "primitives": [
        {
          "attributes": {
            "NORMAL": 5,
            "POSITION": 4,
            "TEXCOORD_0": 6
          },
          "indices": 7,
          "material": 3,
          "mode": 4
        }
      ]
    },
    {
      "primitives": [
        {
          "attributes": {
            "NORMAL": 9,
            "POSITION": 8,
            "TEXCOORD_0": 10
          },
          "indices": 11,
          "material": 0,
          "mode": 4
        }
      ]
    },
    {
      "primitives": [
        {
          "attributes": {
            "NORMAL": 13,
            "POSITION": 12,
            "TEXCOORD_0": 14
          },
          "indices": 15,
          "material": 0,
          "mode": 4
        }
      ]
    },
    {
      "primitives": [
        {
          "attributes": {
            "NORMAL": 17,
            "POSITION": 16,
            "TEXCOORD_0": 18
          },
          "indices": 19,
          "material": 0,
          "mode": 4
        }
      ]
    },
    {
      "primitives": [
        {
          "attributes": {
            "NORMAL": 21,
            "POSITION": 20,
            "TEXCOORD_0": 22
          },
          "indices": 23,
          "material": 0,
          "mode": 4
        }
      ]
    },
    {
      "primitives": [
        {
          "attributes": {
            "NORMAL": 25,
            "POSITION": 24,
            "TEXCOORD_0": 26
          },
          "indices": 27,
          "material": 0,
          "mode": 4
        }
      ]
    },
    {
      "primitives": [
        {
          "attributes": {
            "NORMAL": 29,
            "POSITION": 28,
            "TEXCOORD_0": 30
          },
          "indices": 31,
          "material": 1,
          "mode": 4
        }
      ]
    }
  ],
  "nodes": [
    {
      "children": [1],
      "name": "RootNode (gltf orientation matrix)",
      "rotation": [-0.70710678118654746, -0, -0, 0.70710678118654757]
    },
    {
      "children": [2],
      "name": "RootNode (model correction matrix)"
    },
    {
      "children": [3, 4, 5, 6, 7, 8, 9, 10],
      "name": "A4 (www.colacola.obj.cleaner.materialmerger.gles"
    },
    {
      "mesh": 0,
      "name": ""
    },
    {
      "mesh": 1,
      "name": ""
    },
    {
      "mesh": 2,
      "name": ""
    },
    {
      "mesh": 3,
      "name": ""
    },
    {
      "mesh": 4,
      "name": ""
    },
    {
      "mesh": 5,
      "name": ""
    },
    {
      "mesh": 6,
      "name": ""
    },
    {
      "mesh": 7,
      "name": ""
    }
  ],
  "samplers": [
    {
      "magFilter": 9729,
      "minFilter": 9987,
      "wrapS": 10497,
      "wrapT": 10497
    }
  ],
  "scene": 0,
  "scenes": [
    {
      "name": "OSG_Scene",
      "nodes": [0]
    }
  ],
  "textures": [
    {
      "sampler": 0,
      "source": 0
    }
  ]
}
