{
  "accessors": [
    {
      "bufferView": 2,
      "componentType": 5126,
      "count": 1085,
      "max": [
        0.51092535257339478,
        0.49603474140167236,
        0.51131141185760498
      ],
      "min": [
        -0.36829671263694763,
        -0.47642603516578674,
        -0.48538711667060852
      ],
      "type": "VEC3"
    },
    {
      "bufferView": 2,
      "byteOffset": 13020,
      "componentType": 5126,
      "count": 1085,
      "max": [
        0.99889767169952393,
        0.9995962381362915,
        0.99985098838806152
      ],
      "min": [
        -0.99891036748886108,
        -0.99958992004394531,
        -0.9961240291595459
      ],
      "type": "VEC3"
    },
    {
      "bufferView": 3,
      "componentType": 5126,
      "count": 1085,
      "max": [
        0.99194449186325073,
        0.83640545606613159,
        0.99939179420471191,
        1
      ],
      "min": [
        -0.99928629398345947,
        -0.99994957447052002,
        -0.99989968538284302,
        1
      ],
      "type": "VEC4"
    },
    {
      "bufferView": 1,
      "componentType": 5126,
      "count": 1085,
      "max": [
        0.99284148216247559,
        0.99364101886749268
      ],
      "min": [
        0.0097346603870391846,
        0.0045274794101715088
      ],
      "type": "VEC2"
    },
    {
      "bufferView": 0,
      "componentType": 5125,
      "count": 5556,
      "max": [
        1084
      ],
      "min": [
        0
      ],
      "type": "SCALAR"
    },
    {
      "bufferView": 2,
      "byteOffset": 26040,
      "componentType": 5126,
      "count": 3057,
      "max": [
        0.46625381708145142,
        0.43218323588371277,
        0.46371984481811523
      ],
      "min": [
        -0.33958098292350769,
        -0.42646834254264832,
        -0.43425405025482178
      ],
      "type": "VEC3"
    },
    {
      "bufferView": 2,
      "byteOffset": 62724,
      "componentType": 5126,
      "count": 3057,
      "max": [
        0.9999549388885498,
        0.9983750581741333,
        0.99944567680358887
      ],
      "min": [
        -0.97657948732376099,
        -0.96720051765441895,
        -0.99968957901000977
      ],
      "type": "VEC3"
    },
    {
      "bufferView": 3,
      "byteOffset": 17360,
      "componentType": 5126,
      "count": 3057,
      "max": [
        0.99692350625991821,
        0.99880802631378174,
        0.99634474515914917,
        1
      ],
      "min": [
        -0.98543918132781982,
        -0.99998527765274048,
        -0.9953383207321167,
        1
      ],
      "type": "VEC4"
    },
    {
      "bufferView": 1,
      "byteOffset": 8680,
      "componentType": 5126,
      "count": 3057,
      "max": [
        0.99284148216247559,
        0.99364101886749268
      ],
      "min": [
        0.0097346603870391846,
        0.0045274794101715088
      ],
      "type": "VEC2"
    },
    {
      "bufferView": 1,
      "byteOffset": 33136,
      "componentType": 5126,
      "count": 3057,
      "max": [
        0,
        0
      ],
      "min": [
        0,
        0
      ],
      "type": "VEC2"
    },
    {
      "bufferView": 1,
      "byteOffset": 57592,
      "componentType": 5126,
      "count": 3057,
      "max": [
        0,
        0
      ],
      "min": [
        0,
        0
      ],
      "type": "VEC2"
    },
    {
      "bufferView": 0,
      "byteOffset": 22224,
      "componentType": 5125,
      "count": 3189,
      "max": [
        3056
      ],
      "min": [
        0
      ],
      "type": "SCALAR"
    },
    {
      "bufferView": 2,
      "byteOffset": 99408,
      "componentType": 5126,
      "count": 14536,
      "max": [
        0.22900402545928955,
        0.47880873084068298,
        0.29171514511108398
      ],
      "min": [
        -0.17561697959899902,
        -0.29537606239318848,
        -0.32297801971435547
      ],
      "type": "VEC3"
    },
    {
      "bufferView": 2,
      "byteOffset": 273840,
      "componentType": 5126,
      "count": 14536,
      "max": [
        0.99985766410827637,
        0.99777162075042725,
        0.99973058700561523
      ],
      "min": [
        -0.99952995777130127,
        -0.9999469518661499,
        -0.99930083751678467
      ],
      "type": "VEC3"
    },
    {
      "bufferView": 3,
      "byteOffset": 66272,
      "componentType": 5126,
      "count": 14536,
      "max": [
        0.99981856346130371,
        0.99992448091506958,
        0.9999922513961792,
        1
      ],
      "min": [
        -0.99962323904037476,
        -0.99980449676513672,
        -0.99988973140716553,
        -1
      ],
      "type": "VEC4"
    },
    {
      "bufferView": 1,
      "byteOffset": 82048,
      "componentType": 5126,
      "count": 14536,
      "max": [
        0.99829506874084473,
        0.99828624725341797
      ],
      "min": [
        0.0017050158930942416,
        0.0017050158930942416
      ],
      "type": "VEC2"
    },
    {
      "bufferView": 0,
      "byteOffset": 34980,
      "componentType": 5125,
      "count": 34302,
      "max": [
        14535
      ],
      "min": [
        0
      ],
      "type": "SCALAR"
    }
  ],
  "asset": {
    "extras": {
      "author": "Loïc Norgeot (https://sketchfab.com/norgeotloic)",
      "license": "CC-BY-4.0 (http://creativecommons.org/licenses/by/4.0/)",
      "source": "https://sketchfab.com/3d-models/mosquito-in-amber-53a61d58c09b4d2ab30e269aa3e22078",
      "title": "Mosquito in amber"
    },
    "generator": "Sketchfab-5.44.0",
    "version": "2.0"
  },
  "bufferViews": [
    {
      "buffer": 0,
      "byteLength": 172188,
      "byteOffset": 0,
      "name": "floatBufferViews",
      "target": 34963
    },
    {
      "buffer": 0,
      "byteLength": 198336,
      "byteOffset": 172188,
      "byteStride": 8,
      "name": "floatBufferViews",
      "target": 34962
    },
    {
      "buffer": 0,
      "byteLength": 448272,
      "byteOffset": 370524,
      "byteStride": 12,
      "name": "floatBufferViews",
      "target": 34962
    },
    {
      "buffer": 0,
      "byteLength": 298848,
      "byteOffset": 818796,
      "byteStride": 16,
      "name": "floatBufferViews",
      "target": 34962
    }
  ],
  "buffers": [
    {
      "byteLength": 1117644,
      "uri": "scene.bin"
    }
  ],
  "images": [
    {
      "uri": "textures/original.o_material_0_baseColor.jpeg"
    },
    {
      "uri": "textures/original.o_material_0_normal.jpeg"
    },
    {
      "uri": "textures/material_baseColor.jpeg"
    },
    {
      "uri": "textures/material_normal.png"
    },
    {
      "uri": "textures/material_metallicRoughness.png"
    }
  ],
  "materials": [
    {
      "alphaMode": "BLEND",
      "doubleSided": true,
      "name": "material",
      "normalTexture": {
        "index": 3,
        "scale": 1,
        "texCoord": 0
      },
      "pbrMetallicRoughness": {
        "baseColorFactor": [
          1,
          1,
          1,
          0
        ],
        "baseColorTexture": {
          "index": 2,
          "texCoord": 0
        },
        "metallicFactor": 0,
        "metallicRoughnessTexture": {
          "index": 4,
          "texCoord": 0
        },
        "roughnessFactor": 1
      }
    },
    {
      "doubleSided": true,
      "name": "eclats",
      "pbrMetallicRoughness": {
        "baseColorFactor": [
          0.12964139127526567,
          0.036591984090116242,
          0.0009085316038721145,
          1
        ],
        "metallicFactor": 0,
        "roughnessFactor": 1
      }
    },
    {
      "doubleSided": true,
      "name": "original.o_material_0",
      "normalTexture": {
        "index": 1,
        "scale": 1,
        "texCoord": 0
      },
      "pbrMetallicRoughness": {
        "baseColorFactor": [
          0.74691358019999998,
          0.74691358019999998,
          0.74691358019999998,
          1
        ],
        "baseColorTexture": {
          "index": 0,
          "texCoord": 0
        },
        "metallicFactor": 0,
        "roughnessFactor": 0.67901234570000002
      }
    }
  ],
  "meshes": [
    {
      "name": "5_amber_lr_PBR_0",
      "primitives": [
        {
          "attributes": {
            "NORMAL": 1,
            "POSITION": 0,
            "TANGENT": 2,
            "TEXCOORD_0": 3
          },
          "indices": 4,
          "material": 0,
          "mode": 4
        }
      ]
    },
    {
      "name": "6_eclats_eclats_0",
      "primitives": [
        {
          "attributes": {
            "NORMAL": 6,
            "POSITION": 5,
            "TANGENT": 7,
            "TEXCOORD_0": 8,
            "TEXCOORD_1": 9,
            "TEXCOORD_2": 10
          },
          "indices": 11,
          "material": 1,
          "mode": 4
        }
      ]
    },
    {
      "name": "2_mosquito_lr_original.o_material_0_0",
      "primitives": [
        {
          "attributes": {
            "NORMAL": 13,
            "POSITION": 12,
            "TANGENT": 14,
            "TEXCOORD_0": 15
          },
          "indices": 16,
          "material": 2,
          "mode": 4
        }
      ]
    }
  ],
  "nodes": [
    {
      "children": [
        1
      ],
      "name": "RootNode (gltf orientation matrix)",
      "rotation": [
        -0.70710678118654746,
        -0,
        -0,
        0.70710678118654757
      ]
    },
    {
      "children": [
        2
      ],
      "name": "RootNode (model correction matrix)"
    },
    {
      "children": [
        3
      ],
      "matrix": [
        1,
        0,
        0,
        0,
        0,
        0,
        1,
        0,
        0,
        -1,
        0,
        0,
        0,
        0,
        0,
        1
      ],
      "name": "0a89b95064be46e6943aaad2c83817a2.fbx"
    },
    {
      "children": [
        4,
        6,
        8
      ],
      "name": "RootNode"
    },
    {
      "children": [
        5
      ],
      "matrix": [
        100,
        0,
        0,
        0,
        0,
        -4.3711390063094768e-06,
        -99.999999999999901,
        0,
        0,
        99.999999999999901,
        -4.3711390063094768e-06,
        0,
        0,
        0,
        0,
        1
      ],
      "name": "5_amber_lr"
    },
    {
      "mesh": 0,
      "name": "5_amber_lr_PBR_0"
    },
    {
      "children": [
        7
      ],
      "matrix": [
        100,
        0,
        0,
        0,
        0,
        -4.3711390063094768e-06,
        -99.999999999999901,
        0,
        0,
        99.999999999999901,
        -4.3711390063094768e-06,
        0,
        0,
        0,
        0,
        1
      ],
      "name": "6_eclats"
    },
    {
      "mesh": 1,
      "name": "6_eclats_eclats_0"
    },
    {
      "children": [
        9
      ],
      "matrix": [
        100,
        0,
        0,
        0,
        0,
        -4.3711390063094768e-06,
        -99.999999999999901,
        0,
        0,
        99.999999999999901,
        -4.3711390063094768e-06,
        0,
        0,
        0,
        0,
        1
      ],
      "name": "2_mosquito_lr"
    },
    {
      "mesh": 2,
      "name": "2_mosquito_lr_original.o_material_0_0"
    }
  ],
  "samplers": [
    {
      "magFilter": 9729,
      "minFilter": 9987,
      "wrapS": 10497,
      "wrapT": 10497
    }
  ],
  "scene": 0,
  "scenes": [
    {
      "name": "OSG_Scene",
      "nodes": [
        0
      ]
    }
  ],
  "textures": [
    {
      "sampler": 0,
      "source": 0
    },
    {
      "sampler": 0,
      "source": 1
    },
    {
      "sampler": 0,
      "source": 2
    },
    {
      "sampler": 0,
      "source": 3
    },
    {
      "sampler": 0,
      "source": 4
    }
  ]
}

