{
	"asset": 
	{
		"version": "2.0",
		"generator": "Unreal Engine 4.24.3"
	},
	"scene": 0,
	"accessors": [
		{
			"name": "MatineeCam_SM_Positions",
			"bufferView": 0,
			"count": 3202,
			"type": "VEC3",
			"componentType": 5126,
			"min": [ -95.1474, -24.9557, -24.0124 ],
			"max": [ 0.472336, 28.5605, 24.0124 ]
		},
		{
			"name": "MatineeCam_SM_Normals",
			"bufferView": 1,
			"count": 3202,
			"type": "VEC3",
			"componentType": 5126
		},
		{
			"name": "MatineeCam_SM_Tangents",
			"bufferView": 2,
			"count": 3202,
			"type": "VEC4",
			"componentType": 5126
		},
		{
			"name": "MatineeCam_SM_UV0s",
			"bufferView": 3,
			"count": 3202,
			"type": "VEC2",
			"componentType": 5126
		},
		{
			"name": "MatineeCam_SM_Section0_Indices",
			"bufferView": 4,
			"count": 13584,
			"type": "SCALAR",
			"componentType": 5125
		}
	],
	"bufferViews": [
		{
			"name": "MatineeCam_SM_Positions",
			"buffer": 0,
			"byteLength": 38424,
			"target": 34962
		},
		{
			"name": "MatineeCam_SM_Normals",
			"buffer": 0,
			"byteLength": 38424,
			"byteOffset": 38424,
			"target": 34962
		},
		{
			"name": "MatineeCam_SM_Tangents",
			"buffer": 0,
			"byteLength": 51232,
			"byteOffset": 76848,
			"target": 34962
		},
		{
			"name": "MatineeCam_SM_UV0s",
			"buffer": 0,
			"byteLength": 25616,
			"byteOffset": 128080,
			"target": 34962
		},
		{
			"name": "MatineeCam_SM_Section0_Indices",
			"buffer": 0,
			"byteLength": 54336,
			"byteOffset": 153696,
			"target": 34963
		}
	],
	"meshes": [
		{
			"name": "MatineeCam_SM",
			"primitives": [
				{
					"attributes": 
					{
						"POSITION": 0,
						"NORMAL": 1,
						"TANGENT": 2,
						"TEXCOORD_0": 3
					},
					"indices": 4
				}
			]
		}
	],
	"nodes": [
		{
			"mesh": 0
		}
	],
	"scenes": [
		{
			"nodes": [ 0 ]
		}
	],
	"buffers": [
		{
			"uri": "data:application/octet-stream;base64,",
			"byteLength": 208032
		}
	]
}