{
	"asset": 
	{
		"version": "2.0",
		"generator": "Unreal Engine 4.24.3"
	},
	"scene": 0,
	"accessors": [
		{
			"name": "Floor_400x400_Positions",
			"bufferView": 0,
			"count": 24,
			"type": "VEC3",
			"componentType": 5126,
			"min": [ 0, -20.0001, 0 ],
			"max": [ 400, 2.28882e-05, 400 ]
		},
		{
			"name": "Floor_400x400_Normals",
			"bufferView": 1,
			"count": 24,
			"type": "VEC3",
			"componentType": 5126
		},
		{
			"name": "Floor_400x400_Tangents",
			"bufferView": 2,
			"count": 24,
			"type": "VEC4",
			"componentType": 5126
		},
		{
			"name": "Floor_400x400_UV0s",
			"bufferView": 3,
			"count": 24,
			"type": "VEC2",
			"componentType": 5126
		},
		{
			"name": "Floor_400x400_UV1s",
			"bufferView": 4,
			"count": 24,
			"type": "VEC2",
			"componentType": 5126
		},
		{
			"name": "Floor_400x400_Section0_Indices",
			"bufferView": 5,
			"count": 36,
			"type": "SCALAR",
			"componentType": 5125
		},
		{
			"name": "SM_TableRound_Positions",
			"bufferView": 6,
			"count": 3900,
			"type": "VEC3",
			"componentType": 5126,
			"min": [ -61.5405, 0.10635, -61.5405 ],
			"max": [ 61.5405, 70.3144, 61.5405 ]
		},
		{
			"name": "SM_TableRound_Normals",
			"bufferView": 7,
			"count": 3900,
			"type": "VEC3",
			"componentType": 5126
		},
		{
			"name": "SM_TableRound_Tangents",
			"bufferView": 8,
			"count": 3900,
			"type": "VEC4",
			"componentType": 5126
		},
		{
			"name": "SM_TableRound_UV0s",
			"bufferView": 9,
			"count": 3900,
			"type": "VEC2",
			"componentType": 5126
		},
		{
			"name": "SM_TableRound_UV1s",
			"bufferView": 10,
			"count": 3900,
			"type": "VEC2",
			"componentType": 5126
		},
		{
			"name": "SM_TableRound_Section0_Indices",
			"bufferView": 11,
			"count": 12960,
			"type": "SCALAR",
			"componentType": 5125
		},
		{
			"name": "SM_Chair_Positions",
			"bufferView": 12,
			"count": 1467,
			"type": "VEC3",
			"componentType": 5126,
			"min": [ -41.944, 7.62939e-06, -40.4507 ],
			"max": [ 40.2119, 115.351, 40.4507 ]
		},
		{
			"name": "SM_Chair_Normals",
			"bufferView": 13,
			"count": 1467,
			"type": "VEC3",
			"componentType": 5126
		},
		{
			"name": "SM_Chair_Tangents",
			"bufferView": 14,
			"count": 1467,
			"type": "VEC4",
			"componentType": 5126
		},
		{
			"name": "SM_Chair_UV0s",
			"bufferView": 15,
			"count": 1467,
			"type": "VEC2",
			"componentType": 5126
		},
		{
			"name": "SM_Chair_Section0_Indices",
			"bufferView": 16,
			"count": 5346,
			"type": "SCALAR",
			"componentType": 5125
		},
		{
			"name": "SM_Chair_Positions",
			"bufferView": 17,
			"count": 1467,
			"type": "VEC3",
			"componentType": 5126,
			"min": [ -41.944, 7.62939e-06, -40.4507 ],
			"max": [ 40.2119, 115.351, 40.4507 ]
		},
		{
			"name": "SM_Chair_Normals",
			"bufferView": 18,
			"count": 1467,
			"type": "VEC3",
			"componentType": 5126
		},
		{
			"name": "SM_Chair_Tangents",
			"bufferView": 19,
			"count": 1467,
			"type": "VEC4",
			"componentType": 5126
		},
		{
			"name": "SM_Chair_UV0s",
			"bufferView": 20,
			"count": 1467,
			"type": "VEC2",
			"componentType": 5126
		},
		{
			"name": "SM_Chair_Section0_Indices",
			"bufferView": 21,
			"count": 5346,
			"type": "SCALAR",
			"componentType": 5125
		},
		{
			"name": "Floor_400x400_Positions",
			"bufferView": 22,
			"count": 24,
			"type": "VEC3",
			"componentType": 5126,
			"min": [ 0, -20.0001, 0 ],
			"max": [ 400, 2.28882e-05, 400 ]
		},
		{
			"name": "Floor_400x400_Normals",
			"bufferView": 23,
			"count": 24,
			"type": "VEC3",
			"componentType": 5126
		},
		{
			"name": "Floor_400x400_Tangents",
			"bufferView": 24,
			"count": 24,
			"type": "VEC4",
			"componentType": 5126
		},
		{
			"name": "Floor_400x400_UV0s",
			"bufferView": 25,
			"count": 24,
			"type": "VEC2",
			"componentType": 5126
		},
		{
			"name": "Floor_400x400_UV1s",
			"bufferView": 26,
			"count": 24,
			"type": "VEC2",
			"componentType": 5126
		},
		{
			"name": "Floor_400x400_Section0_Indices",
			"bufferView": 27,
			"count": 36,
			"type": "SCALAR",
			"componentType": 5125
		},
		{
			"name": "SM_Statue_Positions",
			"bufferView": 28,
			"count": 2428,
			"type": "VEC3",
			"componentType": 5126,
			"min": [ -19.3301, 0, -19.3301 ],
			"max": [ 19.3301, 86.6329, 19.3301 ]
		},
		{
			"name": "SM_Statue_Normals",
			"bufferView": 29,
			"count": 2428,
			"type": "VEC3",
			"componentType": 5126
		},
		{
			"name": "SM_Statue_Tangents",
			"bufferView": 30,
			"count": 2428,
			"type": "VEC4",
			"componentType": 5126
		},
		{
			"name": "SM_Statue_UV0s",
			"bufferView": 31,
			"count": 2428,
			"type": "VEC2",
			"componentType": 5126
		},
		{
			"name": "SM_Statue_UV1s",
			"bufferView": 32,
			"count": 2428,
			"type": "VEC2",
			"componentType": 5126
		},
		{
			"name": "SM_Statue_Section0_Indices",
			"bufferView": 33,
			"count": 9768,
			"type": "SCALAR",
			"componentType": 5125
		},
		{
			"name": "SM_Statue_Section1_Indices",
			"bufferView": 34,
			"count": 2304,
			"type": "SCALAR",
			"componentType": 5125
		}
	],
	"bufferViews": [
		{
			"name": "Floor_400x400_Positions",
			"buffer": 0,
			"byteLength": 288,
			"target": 34962
		},
		{
			"name": "Floor_400x400_Normals",
			"buffer": 0,
			"byteLength": 288,
			"byteOffset": 288,
			"target": 34962
		},
		{
			"name": "Floor_400x400_Tangents",
			"buffer": 0,
			"byteLength": 384,
			"byteOffset": 576,
			"target": 34962
		},
		{
			"name": "Floor_400x400_UV0s",
			"buffer": 0,
			"byteLength": 192,
			"byteOffset": 960,
			"target": 34962
		},
		{
			"name": "Floor_400x400_UV1s",
			"buffer": 0,
			"byteLength": 192,
			"byteOffset": 1152,
			"target": 34962
		},
		{
			"name": "Floor_400x400_Section0_Indices",
			"buffer": 0,
			"byteLength": 144,
			"byteOffset": 1344,
			"target": 34963
		},
		{
			"name": "SM_TableRound_Positions",
			"buffer": 0,
			"byteLength": 46800,
			"byteOffset": 1488,
			"target": 34962
		},
		{
			"name": "SM_TableRound_Normals",
			"buffer": 0,
			"byteLength": 46800,
			"byteOffset": 48288,
			"target": 34962
		},
		{
			"name": "SM_TableRound_Tangents",
			"buffer": 0,
			"byteLength": 62400,
			"byteOffset": 95088,
			"target": 34962
		},
		{
			"name": "SM_TableRound_UV0s",
			"buffer": 0,
			"byteLength": 31200,
			"byteOffset": 157488,
			"target": 34962
		},
		{
			"name": "SM_TableRound_UV1s",
			"buffer": 0,
			"byteLength": 31200,
			"byteOffset": 188688,
			"target": 34962
		},
		{
			"name": "SM_TableRound_Section0_Indices",
			"buffer": 0,
			"byteLength": 51840,
			"byteOffset": 219888,
			"target": 34963
		},
		{
			"name": "SM_Chair_Positions",
			"buffer": 0,
			"byteLength": 17604,
			"byteOffset": 271728,
			"target": 34962
		},
		{
			"name": "SM_Chair_Normals",
			"buffer": 0,
			"byteLength": 17604,
			"byteOffset": 289332,
			"target": 34962
		},
		{
			"name": "SM_Chair_Tangents",
			"buffer": 0,
			"byteLength": 23472,
			"byteOffset": 306936,
			"target": 34962
		},
		{
			"name": "SM_Chair_UV0s",
			"buffer": 0,
			"byteLength": 11736,
			"byteOffset": 330408,
			"target": 34962
		},
		{
			"name": "SM_Chair_Section0_Indices",
			"buffer": 0,
			"byteLength": 21384,
			"byteOffset": 342144,
			"target": 34963
		},
		{
			"name": "SM_Chair_Positions",
			"buffer": 0,
			"byteLength": 17604,
			"byteOffset": 363528,
			"target": 34962
		},
		{
			"name": "SM_Chair_Normals",
			"buffer": 0,
			"byteLength": 17604,
			"byteOffset": 381132,
			"target": 34962
		},
		{
			"name": "SM_Chair_Tangents",
			"buffer": 0,
			"byteLength": 23472,
			"byteOffset": 398736,
			"target": 34962
		},
		{
			"name": "SM_Chair_UV0s",
			"buffer": 0,
			"byteLength": 11736,
			"byteOffset": 422208,
			"target": 34962
		},
		{
			"name": "SM_Chair_Section0_Indices",
			"buffer": 0,
			"byteLength": 21384,
			"byteOffset": 433944,
			"target": 34963
		},
		{
			"name": "Floor_400x400_Positions",
			"buffer": 0,
			"byteLength": 288,
			"byteOffset": 455328,
			"target": 34962
		},
		{
			"name": "Floor_400x400_Normals",
			"buffer": 0,
			"byteLength": 288,
			"byteOffset": 455616,
			"target": 34962
		},
		{
			"name": "Floor_400x400_Tangents",
			"buffer": 0,
			"byteLength": 384,
			"byteOffset": 455904,
			"target": 34962
		},
		{
			"name": "Floor_400x400_UV0s",
			"buffer": 0,
			"byteLength": 192,
			"byteOffset": 456288,
			"target": 34962
		},
		{
			"name": "Floor_400x400_UV1s",
			"buffer": 0,
			"byteLength": 192,
			"byteOffset": 456480,
			"target": 34962
		},
		{
			"name": "Floor_400x400_Section0_Indices",
			"buffer": 0,
			"byteLength": 144,
			"byteOffset": 456672,
			"target": 34963
		},
		{
			"name": "SM_Statue_Positions",
			"buffer": 0,
			"byteLength": 29136,
			"byteOffset": 456816,
			"target": 34962
		},
		{
			"name": "SM_Statue_Normals",
			"buffer": 0,
			"byteLength": 29136,
			"byteOffset": 485952,
			"target": 34962
		},
		{
			"name": "SM_Statue_Tangents",
			"buffer": 0,
			"byteLength": 38848,
			"byteOffset": 515088,
			"target": 34962
		},
		{
			"name": "SM_Statue_UV0s",
			"buffer": 0,
			"byteLength": 19424,
			"byteOffset": 553936,
			"target": 34962
		},
		{
			"name": "SM_Statue_UV1s",
			"buffer": 0,
			"byteLength": 19424,
			"byteOffset": 573360,
			"target": 34962
		},
		{
			"name": "SM_Statue_Section0_Indices",
			"buffer": 0,
			"byteLength": 39072,
			"byteOffset": 592784,
			"target": 34963
		},
		{
			"name": "SM_Statue_Section1_Indices",
			"buffer": 0,
			"byteLength": 9216,
			"byteOffset": 631856,
			"target": 34963
		}
	],
	"meshes": [
		{
			"name": "Floor_400x400",
			"primitives": [
				{
					"attributes": 
					{
						"POSITION": 0,
						"NORMAL": 1,
						"TANGENT": 2,
						"TEXCOORD_0": 3,
						"TEXCOORD_1": 4
					},
					"indices": 5
				}
			]
		},
		{
			"name": "SM_TableRound",
			"primitives": [
				{
					"attributes": 
					{
						"POSITION": 6,
						"NORMAL": 7,
						"TANGENT": 8,
						"TEXCOORD_0": 9,
						"TEXCOORD_1": 10
					},
					"indices": 11
				}
			]
		},
		{
			"name": "SM_Chair",
			"primitives": [
				{
					"attributes": 
					{
						"POSITION": 12,
						"NORMAL": 13,
						"TANGENT": 14,
						"TEXCOORD_0": 15
					},
					"indices": 16
				}
			]
		},
		{
			"name": "SM_Chair",
			"primitives": [
				{
					"attributes": 
					{
						"POSITION": 17,
						"NORMAL": 18,
						"TANGENT": 19,
						"TEXCOORD_0": 20
					},
					"indices": 21
				}
			]
		},
		{
			"name": "Floor_400x400",
			"primitives": [
				{
					"attributes": 
					{
						"POSITION": 22,
						"NORMAL": 23,
						"TANGENT": 24,
						"TEXCOORD_0": 25,
						"TEXCOORD_1": 26
					},
					"indices": 27
				}
			]
		},
		{
			"name": "SM_Statue",
			"primitives": [
				{
					"attributes": 
					{
						"POSITION": 28,
						"NORMAL": 29,
						"TANGENT": 30,
						"TEXCOORD_0": 31,
						"TEXCOORD_1": 32
					},
					"indices": 33
				},
				{
					"attributes": 
					{
						"POSITION": 28,
						"NORMAL": 29,
						"TANGENT": 30,
						"TEXCOORD_0": 31,
						"TEXCOORD_1": 32
					},
					"indices": 34
				}
			]
		}
	],
	"nodes": [
		{
			"name": "Brush_1_BrushComponent0",
			"translation": [ 1240, 0, 1620 ]
		},
		{
			"name": "LightSource_BillboardComponent_0",
			"scale": [ 0.5, 0.5, 0.5 ]
		},
		{
			"name": "LightSource_ArrowComponent0"
		},
		{
			"name": "LightSource_LightComponent0",
			"translation": [ 400, 252, 270 ],
			"rotation": [ -0.211888, 0.706974, -0.412688, 0.533835 ],
			"scale": [ 2.5, 2.5, 2.5 ],
			"children": [ 1, 2 ]
		},
		{
			"name": "PlayerStart_Sprite",
			"scale": [ 0.5, 0.5, 0.5 ]
		},
		{
			"name": "PlayerStart_Sprite2"
		},
		{
			"name": "PlayerStart_Arrow"
		},
		{
			"name": "PlayerStart_CollisionCapsule",
			"translation": [ 165, 124.009, 0 ],
			"rotation": [ -0, -1, -0, 2.02656e-06 ],
			"children": [ 4, 5, 6 ]
		},
		{
			"name": "InstancedFoliageActor_0_RootComponent0"
		},
		{
			"name": "AtmosphericFog_1_Sprite",
			"scale": [ 0.5, 0.5, 0.5 ]
		},
		{
			"name": "AtmosphericFog_1_ArrowComponent0"
		},
		{
			"name": "AtmosphericFog_1_AtmosphericFogComponent0",
			"translation": [ 486, 241, -277 ],
			"children": [ 9, 10 ]
		},
		{
			"name": "Floor_14_StaticMeshComponent0",
			"translation": [ -400, 32, -200 ],
			"scale": [ 1, 2, 1 ],
			"mesh": 0
		},
		{
			"name": "Table_StaticMeshComponent0",
			"translation": [ -180, 32, 0 ],
			"rotation": [ 0, 0.906308, -0, 0.422617 ],
			"mesh": 1
		},
		{
			"name": "Chair_StaticMeshComponent0",
			"translation": [ -210, 32, 105 ],
			"rotation": [ -0, 0.237685, -0, 0.971342 ],
			"mesh": 2
		},
		{
			"name": "Chair_15_StaticMeshComponent0",
			"translation": [ -215, 32, -120 ],
			"rotation": [ -0, -0.528067, -0, 0.849203 ],
			"mesh": 3
		},
		{
			"name": "SphereReflectionCapture10_Sprite",
			"scale": [ 0.5, 0.5, 0.5 ]
		},
		{
			"name": "SphereReflectionCapture10_CaptureOffset",
			"scale": [ 0.2, 0.2, 0.2 ]
		},
		{
			"name": "SphereReflectionCapture10_DrawRadius0"
		},
		{
			"name": "SphereReflectionCapture10_DrawRadius1"
		},
		{
			"name": "SphereReflectionCapture10_NewReflectionComponent",
			"translation": [ 140, 225, 0 ],
			"children": [ 16, 17, 18, 19 ]
		},
		{
			"name": "GlobalPostProcessVolume_BrushComponent0",
			"translation": [ 360, 0, 10 ]
		},
		{
			"name": "Floor_StaticMeshComponent0",
			"translation": [ 0, 32, -200 ],
			"scale": [ 1, 2, 1 ],
			"mesh": 4
		},
		{
			"name": "Statue_StaticMeshComponent0",
			"translation": [ -181, 102, 1 ],
			"rotation": [ -0, 0.996195, -0, 0.0871565 ],
			"scale": [ 0.5, 0.5, 0.5 ],
			"mesh": 5
		},
		{
			"name": "Starter_Background_Cue_2_BillboardComponent_0",
			"scale": [ 0.5, 0.5, 0.5 ]
		},
		{
			"name": "Starter_Background_Cue_2_AudioComponent0",
			"translation": [ 215, 400, 0 ],
			"children": [ 24 ]
		},
		{
			"name": "BP_Sky_Sphere_C_2_SkySphereMesh",
			"scale": [ 400, 400, 400 ]
		},
		{
			"name": "BP_Sky_Sphere_C_2_Base",
			"children": [ 26 ]
		},
		{
			"name": "SkyLight_1_BillboardComponent_0"
		},
		{
			"name": "SkyLight_1_Sprite"
		},
		{
			"name": "SkyLight_1_SkyLightComponent0",
			"translation": [ -180, 300, 0 ],
			"children": [ 28, 29 ]
		},
		{
			"name": "SphereReflectionCapture_1_Sprite",
			"scale": [ 0.5, 0.5, 0.5 ]
		},
		{
			"name": "SphereReflectionCapture_1_CaptureOffset",
			"scale": [ 0.2, 0.2, 0.2 ]
		},
		{
			"name": "SphereReflectionCapture_1_DrawRadius0"
		},
		{
			"name": "SphereReflectionCapture_1_DrawRadius1"
		},
		{
			"name": "SphereReflectionCapture_1_NewReflectionComponent",
			"translation": [ -230, 230, 0 ],
			"children": [ 31, 32, 33, 34 ]
		},
		{
			"name": "DefaultPhysicsVolume_0_BrushComponent0"
		},
		{
			"name": "AbstractNavData-Default_SceneComp"
		}
	],
	"scenes": [
		{
			"name": "Minimal_Default",
			"nodes": [ 0, 3, 7, 8, 11, 12, 13, 14, 15, 20, 21, 22, 23, 25, 27, 30, 35, 36, 37 ]
		}
	],
	"buffers": [
		{
			"uri": "data:application/octet-stream;base64,",
			"byteLength": 641072
		}
	]
}