{
  "accessors": [
    {
      "bufferView": 2,
      "componentType": 5126,
      "count": 4,
      "max": [
        8.506678581237793,
        1.8888620847951716e-15,
        8.506678581237793
      ],
      "min": [
        -8.506678581237793,
        -1.8888620847951716e-15,
        -8.506678581237793
      ],
      "type": "VEC3"
    },
    {
      "bufferView": 2,
      "byteOffset": 48,
      "componentType": 5126,
      "count": 4,
      "max": [
        0,
        1,
        2.2204460492503131e-16
      ],
      "min": [
        0,
        1,
        2.2204460492503131e-16
      ],
      "type": "VEC3"
    },
    {
      "bufferView": 3,
      "componentType": 5126,
      "count": 4,
      "max": [
        1,
        0,
        0,
        1
      ],
      "min": [
        1,
        0,
        0,
        1
      ],
      "type": "VEC4"
    },
    {
      "bufferView": 1,
      "componentType": 5126,
      "count": 4,
      "max": [
        1,
        1
      ],
      "min": [
        0,
        0
      ],
      "type": "VEC2"
    },
    {
      "bufferView": 0,
      "componentType": 5125,
      "count": 6,
      "max": [
        3
      ],
      "min": [
        0
      ],
      "type": "SCALAR"
    },
    {
      "bufferView": 2,
      "byteOffset": 96,
      "componentType": 5126,
      "count": 58317,
      "max": [
        2.2701048851013184,
        2.9234728813171387,
        4.5159473419189453
      ],
      "min": [
        -2.2701048851013184,
        0.12400214374065399,
        -5.0765790939331055
      ],
      "type": "VEC3"
    },
    {
      "bufferView": 2,
      "byteOffset": 699900,
      "componentType": 5126,
      "count": 58317,
      "max": [
        1,
        1,
        1
      ],
      "min": [
        -1,
        -1,
        -1
      ],
      "type": "VEC3"
    },
    {
      "bufferView": 3,
      "byteOffset": 64,
      "componentType": 5126,
      "count": 58317,
      "max": [
        1,
        0.99997484683990479,
        0.99999988079071045,
        1
      ],
      "min": [
        -1,
        -0.99999785423278809,
        -1,
        -1
      ],
      "type": "VEC4"
    },
    {
      "bufferView": 1,
      "byteOffset": 32,
      "componentType": 5126,
      "count": 58317,
      "max": [
        0.9990234375,
        0.95272684097290039
      ],
      "min": [
        0.0009765625,
        0.0009765625
      ],
      "type": "VEC2"
    },
    {
      "bufferView": 0,
      "byteOffset": 24,
      "componentType": 5125,
      "count": 327966,
      "max": [
        58316
      ],
      "min": [
        0
      ],
      "type": "SCALAR"
    },
    {
      "bufferView": 2,
      "byteOffset": 1399704,
      "componentType": 5126,
      "count": 8617,
      "max": [
        2.2799670696258545,
        1.7086778879165649,
        3.8400166034698486
      ],
      "min": [
        1.3198864459991455,
        0.014490311965346336,
        2.1458139419555664
      ],
      "type": "VEC3"
    },
    {
      "bufferView": 2,
      "byteOffset": 1503108,
      "componentType": 5126,
      "count": 8617,
      "max": [
        1,
        1,
        1
      ],
      "min": [
        -1,
        -1,
        -1
      ],
      "type": "VEC3"
    },
    {
      "bufferView": 3,
      "byteOffset": 933136,
      "componentType": 5126,
      "count": 8617,
      "max": [
        1,
        1,
        1,
        1
      ],
      "min": [
        -0.99911487102508545,
        -1,
        -1,
        1
      ],
      "type": "VEC4"
    },
    {
      "bufferView": 1,
      "byteOffset": 466568,
      "componentType": 5126,
      "count": 8617,
      "max": [
        0.93676674365997314,
        0.91782087087631226
      ],
      "min": [
        0.0009765625,
        0.0009765625
      ],
      "type": "VEC2"
    },
    {
      "bufferView": 0,
      "byteOffset": 1311888,
      "componentType": 5125,
      "count": 48720,
      "max": [
        8616
      ],
      "min": [
        0
      ],
      "type": "SCALAR"
    },
    {
      "bufferView": 2,
      "byteOffset": 1606512,
      "componentType": 5126,
      "count": 8617,
      "max": [
        2.2799670696258545,
        1.7086778879165649,
        -2.7564995288848877
      ],
      "min": [
        1.3198864459991455,
        0.014490316621959209,
        -4.4507021903991699
      ],
      "type": "VEC3"
    },
    {
      "bufferView": 2,
      "byteOffset": 1709916,
      "componentType": 5126,
      "count": 8617,
      "max": [
        1,
        1,
        1
      ],
      "min": [
        -1,
        -1,
        -1
      ],
      "type": "VEC3"
    },
    {
      "bufferView": 3,
      "byteOffset": 1071008,
      "componentType": 5126,
      "count": 8617,
      "max": [
        1,
        1,
        1,
        1
      ],
      "min": [
        -0.9991147518157959,
        -1,
        -1,
        1
      ],
      "type": "VEC4"
    },
    {
      "bufferView": 1,
      "byteOffset": 535504,
      "componentType": 5126,
      "count": 8617,
      "max": [
        0.9838983416557312,
        0.90718597173690796
      ],
      "min": [
        0.0009765625,
        0.26762944459915161
      ],
      "type": "VEC2"
    },
    {
      "bufferView": 0,
      "byteOffset": 1506768,
      "componentType": 5125,
      "count": 48720,
      "max": [
        8616
      ],
      "min": [
        0
      ],
      "type": "SCALAR"
    },
    {
      "bufferView": 2,
      "byteOffset": 1813320,
      "componentType": 5126,
      "count": 8617,
      "max": [
        -1.3198864459991455,
        1.7086778879165649,
        -2.7564995288848877
      ],
      "min": [
        -2.2799670696258545,
        0.014490316621959209,
        -4.4507021903991699
      ],
      "type": "VEC3"
    },
    {
      "bufferView": 2,
      "byteOffset": 1916724,
      "componentType": 5126,
      "count": 8617,
      "max": [
        1,
        1,
        1
      ],
      "min": [
        -1,
        -1,
        -1
      ],
      "type": "VEC3"
    },
    {
      "bufferView": 3,
      "byteOffset": 1208880,
      "componentType": 5126,
      "count": 8617,
      "max": [
        0.99911481142044067,
        1,
        1,
        -1
      ],
      "min": [
        -1,
        -1,
        -1,
        -1
      ],
      "type": "VEC4"
    },
    {
      "bufferView": 1,
      "byteOffset": 604440,
      "componentType": 5126,
      "count": 8617,
      "max": [
        0.9838983416557312,
        0.90718597173690796
      ],
      "min": [
        0.0009765625,
        0.26762944459915161
      ],
      "type": "VEC2"
    },
    {
      "bufferView": 0,
      "byteOffset": 1701648,
      "componentType": 5125,
      "count": 48720,
      "max": [
        8616
      ],
      "min": [
        0
      ],
      "type": "SCALAR"
    },
    {
      "bufferView": 2,
      "byteOffset": 2020128,
      "componentType": 5126,
      "count": 8617,
      "max": [
        -1.3198864459991455,
        1.7086778879165649,
        3.8400166034698486
      ],
      "min": [
        -2.2799670696258545,
        0.014490311965346336,
        2.1458139419555664
      ],
      "type": "VEC3"
    },
    {
      "bufferView": 2,
      "byteOffset": 2123532,
      "componentType": 5126,
      "count": 8617,
      "max": [
        1,
        1,
        1
      ],
      "min": [
        -1,
        -1,
        -1
      ],
      "type": "VEC3"
    },
    {
      "bufferView": 3,
      "byteOffset": 1346752,
      "componentType": 5126,
      "count": 8617,
      "max": [
        0.99911481142044067,
        1,
        1,
        -1
      ],
      "min": [
        -1,
        -1,
        -1,
        -1
      ],
      "type": "VEC4"
    },
    {
      "bufferView": 1,
      "byteOffset": 673376,
      "componentType": 5126,
      "count": 8617,
      "max": [
        0.93676674365997314,
        0.91782087087631226
      ],
      "min": [
        0.0009765625,
        0.0009765625
      ],
      "type": "VEC2"
    },
    {
      "bufferView": 0,
      "byteOffset": 1896528,
      "componentType": 5125,
      "count": 48720,
      "max": [
        8616
      ],
      "min": [
        0
      ],
      "type": "SCALAR"
    }
  ],
  "asset": {
    "extras": {
      "author": "Valentin N (https://sketchfab.com/vrntech)",
      "license": "CC-BY-4.0 (http://creativecommons.org/licenses/by/4.0/)",
      "source": "https://sketchfab.com/3d-models/futuristic-truck-6d2e9aaf189b4b64916bdf0a177dff6d",
      "title": "Futuristic Truck"
    },
    "generator": "Sketchfab-6.22.0",
    "version": "2.0"
  },
  "bufferViews": [
    {
      "buffer": 0,
      "byteLength": 2091408,
      "byteOffset": 0,
      "name": "floatBufferViews",
      "target": 34963
    },
    {
      "buffer": 0,
      "byteLength": 742312,
      "byteOffset": 2091408,
      "byteStride": 8,
      "name": "floatBufferViews",
      "target": 34962
    },
    {
      "buffer": 0,
      "byteLength": 2226936,
      "byteOffset": 2833720,
      "byteStride": 12,
      "name": "floatBufferViews",
      "target": 34962
    },
    {
      "buffer": 0,
      "byteLength": 1484624,
      "byteOffset": 5060656,
      "byteStride": 16,
      "name": "floatBufferViews",
      "target": 34962
    }
  ],
  "buffers": [
    {
      "byteLength": 6545280,
      "uri": "scene.bin"
    }
  ],
  "images": [
    {
      "uri": "textures/Ground_M_baseColor.png"
    },
    {
      "uri": "textures/Ground_M_metallicRoughness.png"
    },
    {
      "uri": "textures/lambert1_baseColor.png"
    },
    {
      "uri": "textures/lambert1_metallicRoughness.png"
    },
    {
      "uri": "textures/lambert1_emissive.png"
    },
    {
      "uri": "textures/lambert1_normal.png"
    }
  ],
  "materials": [
    {
      "alphaMode": "BLEND",
      "doubleSided": true,
      "name": "Ground_M",
      "occlusionTexture": {
        "index": 1,
        "strength": 1,
        "texCoord": 0
      },
      "pbrMetallicRoughness": {
        "baseColorFactor": [
          0.01,
          0.01,
          0.01,
          0.92854420731707321
        ],
        "baseColorTexture": {
          "index": 0,
          "texCoord": 0
        },
        "metallicFactor": 0,
        "metallicRoughnessTexture": {
          "index": 1,
          "texCoord": 0
        },
        "roughnessFactor": 1
      }
    },
    {
      "doubleSided": false,
      "emissiveFactor": [
        1,
        1,
        1
      ],
      "emissiveTexture": {
        "index": 4,
        "texCoord": 0
      },
      "name": "lambert1",
      "normalTexture": {
        "index": 5,
        "scale": 1,
        "texCoord": 0
      },
      "occlusionTexture": {
        "index": 3,
        "strength": 1,
        "texCoord": 0
      },
      "pbrMetallicRoughness": {
        "baseColorFactor": [
          1,
          1,
          1,
          1
        ],
        "baseColorTexture": {
          "index": 2,
          "texCoord": 0
        },
        "metallicFactor": 1,
        "metallicRoughnessTexture": {
          "index": 3,
          "texCoord": 0
        },
        "roughnessFactor": 1
      }
    }
  ],
  "meshes": [
    {
      "name": "GroundPlane_Ground_M_0",
      "primitives": [
        {
          "attributes": {
            "NORMAL": 1,
            "POSITION": 0,
            "TANGENT": 2,
            "TEXCOORD_0": 3
          },
          "indices": 4,
          "material": 0,
          "mode": 4
        }
      ]
    },
    {
      "name": "Truck_lambert1_0",
      "primitives": [
        {
          "attributes": {
            "NORMAL": 6,
            "POSITION": 5,
            "TANGENT": 7,
            "TEXCOORD_0": 8
          },
          "indices": 9,
          "material": 1,
          "mode": 4
        }
      ]
    },
    {
      "name": "Truck1_lambert1_0",
      "primitives": [
        {
          "attributes": {
            "NORMAL": 11,
            "POSITION": 10,
            "TANGENT": 12,
            "TEXCOORD_0": 13
          },
          "indices": 14,
          "material": 1,
          "mode": 4
        }
      ]
    },
    {
      "name": "Truck2_lambert1_0",
      "primitives": [
        {
          "attributes": {
            "NORMAL": 16,
            "POSITION": 15,
            "TANGENT": 17,
            "TEXCOORD_0": 18
          },
          "indices": 19,
          "material": 1,
          "mode": 4
        }
      ]
    },
    {
      "name": "Truck4_lambert1_0",
      "primitives": [
        {
          "attributes": {
            "NORMAL": 21,
            "POSITION": 20,
            "TANGENT": 22,
            "TEXCOORD_0": 23
          },
          "indices": 24,
          "material": 1,
          "mode": 4
        }
      ]
    },
    {
      "name": "Truck3_lambert1_0",
      "primitives": [
        {
          "attributes": {
            "NORMAL": 26,
            "POSITION": 25,
            "TANGENT": 27,
            "TEXCOORD_0": 28
          },
          "indices": 29,
          "material": 1,
          "mode": 4
        }
      ]
    }
  ],
  "nodes": [
    {
      "children": [
        1
      ],
      "name": "RootNode (gltf orientation matrix)",
      "rotation": [
        -0.70710678118654746,
        -0,
        -0,
        0.70710678118654757
      ]
    },
    {
      "children": [
        2
      ],
      "name": "RootNode (model correction matrix)"
    },
    {
      "children": [
        3
      ],
      "matrix": [
        1,
        0,
        0,
        0,
        0,
        0,
        1,
        0,
        0,
        -1,
        0,
        0,
        0,
        0,
        0,
        1
      ],
      "name": "37928fd6e028418d92bd813ce72cbfa2.fbx"
    },
    {
      "children": [
        4,
        6,
        8,
        10,
        12,
        14
      ],
      "name": "RootNode"
    },
    {
      "children": [
        5
      ],
      "name": "GroundPlane"
    },
    {
      "mesh": 0,
      "name": "GroundPlane_Ground_M_0"
    },
    {
      "children": [
        7
      ],
      "name": "Truck"
    },
    {
      "mesh": 1,
      "name": "Truck_lambert1_0"
    },
    {
      "children": [
        9
      ],
      "name": "Truck1"
    },
    {
      "mesh": 2,
      "name": "Truck1_lambert1_0"
    },
    {
      "children": [
        11
      ],
      "name": "Truck2"
    },
    {
      "mesh": 3,
      "name": "Truck2_lambert1_0"
    },
    {
      "children": [
        13
      ],
      "name": "Truck4"
    },
    {
      "mesh": 4,
      "name": "Truck4_lambert1_0"
    },
    {
      "children": [
        15
      ],
      "name": "Truck3"
    },
    {
      "mesh": 5,
      "name": "Truck3_lambert1_0"
    }
  ],
  "samplers": [
    {
      "magFilter": 9729,
      "minFilter": 9987,
      "wrapS": 10497,
      "wrapT": 10497
    }
  ],
  "scene": 0,
  "scenes": [
    {
      "name": "OSG_Scene",
      "nodes": [
        0
      ]
    }
  ],
  "textures": [
    {
      "sampler": 0,
      "source": 0
    },
    {
      "sampler": 0,
      "source": 1
    },
    {
      "sampler": 0,
      "source": 2
    },
    {
      "sampler": 0,
      "source": 3
    },
    {
      "sampler": 0,
      "source": 4
    },
    {
      "sampler": 0,
      "source": 5
    }
  ]
}

