{
  "accessors": [
    {
      "bufferView": 2,
      "componentType": 5126,
      "count": 4370,
      "max": [
        1.5339561700820923,
        0.1633446216583252,
        0.1513199508190155
      ],
      "min": [
        -1.5339561700820923,
        -0.29414746165275574,
        -0.86785429716110229
      ],
      "type": "VEC3"
    },
    {
      "bufferView": 2,
      "byteOffset": 52440,
      "componentType": 5126,
      "count": 4370,
      "max": [
        0.99999427795410156,
        0.99995696544647217,
        0.99995410442352295
      ],
      "min": [
        -0.99999427795410156,
        -0.99921989440917969,
        -0.99998712539672852
      ],
      "type": "VEC3"
    },
    {
      "bufferView": 3,
      "componentType": 5126,
      "count": 4370,
      "max": [
        0.9999268651008606,
        0.9999699592590332,
        0.99996906518936157,
        1
      ],
      "min": [
        -0.99996042251586914,
        -0.99999988079071045,
        -0.85998576879501343,
        -1
      ],
      "type": "VEC4"
    },
    {
      "bufferView": 1,
      "componentType": 5126,
      "count": 4370,
      "max": [
        0.65123963356018066,
        0.77608591318130493
      ],
      "min": [
        0.00029140649712644517,
        0
      ],
      "type": "VEC2"
    },
    {
      "bufferView": 0,
      "componentType": 5125,
      "count": 18624,
      "max": [
        4369
      ],
      "min": [
        0
      ],
      "type": "SCALAR"
    },
    {
      "bufferView": 2,
      "byteOffset": 104880,
      "componentType": 5126,
      "count": 98,
      "max": [
        1.4575239419937134,
        0.49914389848709106,
        0.023916732519865036
      ],
      "min": [
        -1.4575239419937134,
        -0.48128604888916016,
        -0.20920529961585999
      ],
      "type": "VEC3"
    },
    {
      "bufferView": 2,
      "byteOffset": 106056,
      "componentType": 5126,
      "count": 98,
      "max": [
        0.41021186113357544,
        0.17869094014167786,
        0.99915385246276855
      ],
      "min": [
        -0.41021186113357544,
        -0.37935194373130798,
        0.90220916271209717
      ],
      "type": "VEC3"
    },
    {
      "bufferView": 3,
      "byteOffset": 69920,
      "componentType": 5126,
      "count": 98,
      "max": [
        0.16843123733997345,
        0.99965119361877441,
        0.37860310077667236,
        1
      ],
      "min": [
        -0.11990911513566971,
        0.92478471994400024,
        -0.18860001862049103,
        1
      ],
      "type": "VEC4"
    },
    {
      "bufferView": 1,
      "byteOffset": 34960,
      "componentType": 5126,
      "count": 98,
      "max": [
        0.47124850749969482,
        0.56716746091842651
      ],
      "min": [
        0.24038854241371155,
        0
      ],
      "type": "VEC2"
    },
    {
      "bufferView": 0,
      "byteOffset": 74496,
      "componentType": 5125,
      "count": 432,
      "max": [
        97
      ],
      "min": [
        0
      ],
      "type": "SCALAR"
    },
    {
      "bufferView": 2,
      "byteOffset": 107232,
      "componentType": 5126,
      "count": 1973,
      "max": [
        1.5327898263931274,
        0.32474753260612488,
        0.091049306094646454
      ],
      "min": [
        -1.5327898263931274,
        0.1306309700012207,
        -0.029011592268943787
      ],
      "type": "VEC3"
    },
    {
      "bufferView": 2,
      "byteOffset": 130908,
      "componentType": 5126,
      "count": 1973,
      "max": [
        0.99997544288635254,
        0.99999964237213135,
        0.99967288970947266
      ],
      "min": [
        -0.99997520446777344,
        -0.9999927282333374,
        -0.99964570999145508
      ],
      "type": "VEC3"
    },
    {
      "bufferView": 3,
      "byteOffset": 71488,
      "componentType": 5126,
      "count": 1973,
      "max": [
        0.99999308586120605,
        0.9999997615814209,
        0.99999386072158813,
        1
      ],
      "min": [
        -0.99999302625656128,
        -0.99820482730865479,
        -0.99999254941940308,
        -1
      ],
      "type": "VEC4"
    },
    {
      "bufferView": 1,
      "byteOffset": 35744,
      "componentType": 5126,
      "count": 1973,
      "max": [
        0.65098869800567627,
        0.65345388650894165
      ],
      "min": [
        0.11514509469270706,
        0.36586982011795044
      ],
      "type": "VEC2"
    },
    {
      "bufferView": 0,
      "byteOffset": 76224,
      "componentType": 5125,
      "count": 6960,
      "max": [
        1972
      ],
      "min": [
        0
      ],
      "type": "SCALAR"
    },
    {
      "bufferView": 2,
      "byteOffset": 154584,
      "componentType": 5126,
      "count": 2013,
      "max": [
        1.5313949584960938,
        3.2616457939147949,
        0.090721338987350464
      ],
      "min": [
        -1.5313948392868042,
        0.28060230612754822,
        -0.47968488931655884
      ],
      "type": "VEC3"
    },
    {
      "bufferView": 2,
      "byteOffset": 178740,
      "componentType": 5126,
      "count": 2013,
      "max": [
        0.9997260570526123,
        0.99991190433502197,
        0.98708081245422363
      ],
      "min": [
        -0.9997260570526123,
        -0.999930739402771,
        -0.99946331977844238
      ],
      "type": "VEC3"
    },
    {
      "bufferView": 3,
      "byteOffset": 103056,
      "componentType": 5126,
      "count": 2013,
      "max": [
        0.99936771392822266,
        0.9868624210357666,
        0.91067790985107422,
        1
      ],
      "min": [
        -0.99885267019271851,
        -0.98441785573959351,
        -0.99727046489715576,
        1
      ],
      "type": "VEC4"
    },
    {
      "bufferView": 1,
      "byteOffset": 51528,
      "componentType": 5126,
      "count": 2013,
      "max": [
        1.0000001192092896,
        1.0000001192092896
      ],
      "min": [
        0.22218289971351624,
        0
      ],
      "type": "VEC2"
    },
    {
      "bufferView": 0,
      "byteOffset": 104064,
      "componentType": 5125,
      "count": 9120,
      "max": [
        2012
      ],
      "min": [
        0
      ],
      "type": "SCALAR"
    },
    {
      "bufferView": 2,
      "byteOffset": 202896,
      "componentType": 5126,
      "count": 272,
      "max": [
        1.5022042989730835,
        0.030484076589345932,
        -0.39638909697532654
      ],
      "min": [
        -1.5022042989730835,
        -0.0053834598511457443,
        -0.4075196385383606
      ],
      "type": "VEC3"
    },
    {
      "bufferView": 2,
      "byteOffset": 206160,
      "componentType": 5126,
      "count": 272,
      "max": [
        0.84506732225418091,
        0.72788912057876587,
        0.81168073415756226
      ],
      "min": [
        -0.84506732225418091,
        -0.72788912057876587,
        -0.81168073415756226
      ],
      "type": "VEC3"
    },
    {
      "bufferView": 3,
      "byteOffset": 135264,
      "componentType": 5126,
      "count": 272,
      "max": [
        0.97145038843154907,
        0.7821686863899231,
        0.81832581758499146,
        1
      ],
      "min": [
        -0.97145342826843262,
        -0.98864454030990601,
        -0.83486860990524292,
        -1
      ],
      "type": "VEC4"
    },
    {
      "bufferView": 1,
      "byteOffset": 67632,
      "componentType": 5126,
      "count": 272,
      "max": [
        0.23530048131942749,
        0.50849562883377075
      ],
      "min": [
        0.22640976309776306,
        0.3435799777507782
      ],
      "type": "VEC2"
    },
    {
      "bufferView": 0,
      "byteOffset": 140544,
      "componentType": 5125,
      "count": 744,
      "max": [
        271
      ],
      "min": [
        0
      ],
      "type": "SCALAR"
    }
  ],
  "asset": {
    "extras": {
      "author": "Berk Gedik (https://sketchfab.com/berkgedik)",
      "license": "CC-BY-4.0 (http://creativecommons.org/licenses/by/4.0/)",
      "source": "https://sketchfab.com/3d-models/mustang-sunglasses-mu-1683-eeec9fbb427246959acee4e4266b0f0a",
      "title": "Mustang Sunglasses - MU 1683"
    },
    "generator": "Sketchfab-7.72.0",
    "version": "2.0"
  },
  "bufferViews": [
    {
      "buffer": 0,
      "byteLength": 143520,
      "byteOffset": 0,
      "name": "floatBufferViews",
      "target": 34963
    },
    {
      "buffer": 0,
      "byteLength": 69808,
      "byteOffset": 143520,
      "byteStride": 8,
      "name": "floatBufferViews",
      "target": 34962
    },
    {
      "buffer": 0,
      "byteLength": 209424,
      "byteOffset": 213328,
      "byteStride": 12,
      "name": "floatBufferViews",
      "target": 34962
    },
    {
      "buffer": 0,
      "byteLength": 139616,
      "byteOffset": 422752,
      "byteStride": 16,
      "name": "floatBufferViews",
      "target": 34962
    }
  ],
  "buffers": [
    {
      "byteLength": 562368,
      "uri": "scene.bin"
    }
  ],
  "images": [
    {
      "uri": "textures/Mustang_baseColor.png"
    },
    {
      "uri": "textures/Mustang_metallicRoughness.png"
    },
    {
      "uri": "textures/Mustang_normal.png"
    }
  ],
  "materials": [
    {
      "alphaMode": "BLEND",
      "doubleSided": true,
      "emissiveFactor": [
        0,
        0,
        0
      ],
      "name": "Mustang",
      "normalTexture": {
        "index": 2,
        "scale": 1,
        "texCoord": 0
      },
      "occlusionTexture": {
        "index": 1,
        "strength": 1,
        "texCoord": 0
      },
      "pbrMetallicRoughness": {
        "baseColorFactor": [
          1,
          1,
          1,
          1
        ],
        "baseColorTexture": {
          "index": 0,
          "texCoord": 0
        },
        "metallicFactor": 1,
        "metallicRoughnessTexture": {
          "index": 1,
          "texCoord": 0
        },
        "roughnessFactor": 1
      }
    }
  ],
  "meshes": [
    {
      "name": "Cube_Mustang_0",
      "primitives": [
        {
          "attributes": {
            "NORMAL": 1,
            "POSITION": 0,
            "TANGENT": 2,
            "TEXCOORD_0": 3
          },
          "indices": 4,
          "material": 0,
          "mode": 4
        }
      ]
    },
    {
      "name": "Plane_Mustang_0",
      "primitives": [
        {
          "attributes": {
            "NORMAL": 6,
            "POSITION": 5,
            "TANGENT": 7,
            "TEXCOORD_0": 8
          },
          "indices": 9,
          "material": 0,
          "mode": 4
        }
      ]
    },
    {
      "name": "Cube.003_Mustang_0",
      "primitives": [
        {
          "attributes": {
            "NORMAL": 11,
            "POSITION": 10,
            "TANGENT": 12,
            "TEXCOORD_0": 13
          },
          "indices": 14,
          "material": 0,
          "mode": 4
        }
      ]
    },
    {
      "name": "Cube.004_Mustang_0",
      "primitives": [
        {
          "attributes": {
            "NORMAL": 16,
            "POSITION": 15,
            "TANGENT": 17,
            "TEXCOORD_0": 18
          },
          "indices": 19,
          "material": 0,
          "mode": 4
        }
      ]
    },
    {
      "name": "Cube.005_Mustang_0",
      "primitives": [
        {
          "attributes": {
            "NORMAL": 21,
            "POSITION": 20,
            "TANGENT": 22,
            "TEXCOORD_0": 23
          },
          "indices": 24,
          "material": 0,
          "mode": 4
        }
      ]
    }
  ],
  "nodes": [
    {
      "children": [
        1
      ],
      "name": "RootNode (gltf orientation matrix)",
      "rotation": [
        -0.70710678118654746,
        -0,
        -0,
        0.70710678118654757
      ]
    },
    {
      "children": [
        2
      ],
      "name": "RootNode (model correction matrix)"
    },
    {
      "children": [
        3
      ],
      "matrix": [
        1,
        0,
        0,
        0,
        0,
        0,
        1,
        0,
        0,
        -1,
        0,
        0,
        0,
        0,
        0,
        1
      ],
      "name": "Mustang.fbx"
    },
    {
      "children": [
        4,
        6,
        9,
        11,
        13,
        15,
        17
      ],
      "name": "RootNode"
    },
    {
      "children": [
        5
      ],
      "matrix": [
        100,
        0,
        0,
        0,
        0,
        -1.6292067939183141e-05,
        -99.999999999998678,
        0,
        0,
        99.999999999998678,
        -1.6292067939183141e-05,
        0,
        0,
        37.01373291015625,
        4.9731220315152314e-06,
        1
      ],
      "name": "Cube"
    },
    {
      "mesh": 0,
      "name": "Cube_Mustang_0"
    },
    {
      "children": [
        7
      ],
      "matrix": [
        -29.08647719990347,
        -5.5189064575668629,
        -95.517119101714371,
        0,
        56.639309131094492,
        79.467234285632031,
        -21.839123978419661,
        0,
        77.110087759933748,
        -60.452463565620441,
        -19.988346967737169,
        0,
        407.62454223632812,
        590.38623046875,
        -100.54539489746094,
        1
      ],
      "name": "Light"
    },
    {
      "children": [
        8
      ],
      "matrix": [
        1,
        0,
        0,
        0,
        0,
        2.2204460492503131e-16,
        1,
        0,
        0,
        -1,
        2.2204460492503131e-16,
        0,
        0,
        0,
        0,
        1
      ],
      "name": ""
    },
    {
      "name": ""
    },
    {
      "children": [
        10
      ],
      "matrix": [
        -65.155832803290963,
        -44.527135765708579,
        -61.417030473735487,
        0,
        -32.40134137821245,
        89.539574512336159,
        -30.542088974418615,
        0,
        68.592054721299746,
        -1.0718647115348782e-05,
        -72.767633623962695,
        0,
        735.88916015625,
        495.8309326171875,
        692.5791015625,
        1
      ],
      "name": "Camera"
    },
    {
      "name": ""
    },
    {
      "children": [
        12
      ],
      "matrix": [
        100,
        0,
        0,
        0,
        0,
        99.999999999999901,
        4.371138828673792e-06,
        0,
        0,
        -4.371138828673792e-06,
        99.999999999999901,
        0,
        0,
        -1.862645149230957e-07,
        17.680385589599609,
        1
      ],
      "name": "Plane"
    },
    {
      "mesh": 1,
      "name": "Plane_Mustang_0"
    },
    {
      "children": [
        14
      ],
      "matrix": [
        100,
        0,
        0,
        0,
        0,
        -1.6292067939183141e-05,
        -99.999999999998678,
        0,
        0,
        99.999999999998678,
        -1.6292067939183141e-05,
        0,
        0,
        37.01373291015625,
        4.9731220315152314e-06,
        1
      ],
      "name": "Cube.003"
    },
    {
      "mesh": 2,
      "name": "Cube.003_Mustang_0"
    },
    {
      "children": [
        16
      ],
      "matrix": [
        100,
        0,
        0,
        0,
        0,
        -1.6292067939183141e-05,
        -99.999999999998678,
        0,
        0,
        99.999999999998678,
        -1.6292067939183141e-05,
        0,
        0,
        37.01373291015625,
        4.9731220315152314e-06,
        1
      ],
      "name": "Cube.004"
    },
    {
      "mesh": 3,
      "name": "Cube.004_Mustang_0"
    },
    {
      "children": [
        18
      ],
      "matrix": [
        100,
        0,
        0,
        0,
        0,
        -1.6292067939183141e-05,
        -99.999999999998678,
        0,
        0,
        99.999999999998678,
        -1.6292067939183141e-05,
        0,
        0,
        85.834846496582031,
        -21.193683624267578,
        1
      ],
      "name": "Cube.005"
    },
    {
      "mesh": 4,
      "name": "Cube.005_Mustang_0"
    }
  ],
  "samplers": [
    {
      "magFilter": 9729,
      "minFilter": 9987,
      "wrapS": 10497,
      "wrapT": 10497
    }
  ],
  "scene": 0,
  "scenes": [
    {
      "name": "OSG_Scene",
      "nodes": [
        0
      ]
    }
  ],
  "textures": [
    {
      "sampler": 0,
      "source": 0
    },
    {
      "sampler": 0,
      "source": 1
    },
    {
      "sampler": 0,
      "source": 2
    }
  ]
}

