<svg width="144" height="167" viewBox="0 0 144 167" fill="none" xmlns="http://www.w3.org/2000/svg">
<g clip-path="url(#clip0)">
<path fill-rule="evenodd" clip-rule="evenodd" d="M130.923 -9.15527e-05H13.077C3.52513 -9.15527e-05 0 3.52296 0 13.0736V128.317C0 129.398 0.0436099 130.402 0.13914 131.332C0.356605 133.417 0.397548 135.437 2.33752 137.737C2.5271 137.962 4.50772 139.435 4.50772 139.435C5.57309 139.957 6.30054 140.342 7.50209 140.825L65.5311 165.123C68.5435 166.503 69.8032 167.041 71.9912 166.998V166.998C71.9942 166.998 71.9969 166.998 71.9998 166.998C72.0028 166.998 72.0055 166.998 72.0084 166.998V166.998C74.1964 167.041 75.4561 166.503 78.4689 165.123L136.498 140.825C137.699 140.342 138.427 139.957 139.492 139.435C139.492 139.435 141.473 137.962 141.662 137.737C143.602 135.437 143.643 133.417 143.861 131.332C143.956 130.402 144 129.398 144 128.317V13.0736C144 3.52296 140.475 -9.15527e-05 130.923 -9.15527e-05Z" fill="white"/>
<path d="M123.03 115.862L123.003 116.128L122.977 116.42L122.923 116.686L122.844 116.952L122.792 117.191L122.712 117.457L122.606 117.696L122.499 117.909L122.395 118.148L122.262 118.361L122.129 118.574L121.971 118.786L121.837 118.999L121.68 119.185L121.493 119.371L121.335 119.53L121.123 119.717L120.938 119.876L120.725 120.036L120.514 120.167L120.303 120.326L120.063 120.459L119.825 120.565L119.588 120.698L119.322 120.805L119.057 120.911L118.793 120.991L118.528 121.071L118.289 121.15L118.025 121.204L117.787 121.257L117.549 121.31L117.283 121.363L117.018 121.389L116.781 121.416L116.515 121.443L116.224 121.469L115.959 121.496H115.695H115.404H115.111H114.847L114.582 121.469H114.292L114.027 121.443L113.761 121.416L113.47 121.389L113.206 121.336L112.941 121.31L112.675 121.257L112.411 121.204L112.146 121.15L111.882 121.097L111.616 121.018L111.378 120.964L111.114 120.884L110.849 120.805L110.61 120.698L110.346 120.619L110.108 120.539L109.843 120.433L109.604 120.326L109.366 120.22L109.128 120.089L108.889 119.982L108.651 119.849L108.44 119.717L108.201 119.583L107.989 119.451L107.777 119.318L107.565 119.158L107.354 118.999L107.141 118.839L106.93 118.68L106.744 118.52L106.533 118.334L106.692 118.122L106.877 117.935L107.036 117.723L107.221 117.51L107.381 117.324L107.539 117.111L107.725 116.899L107.883 116.713L108.069 116.5L108.227 116.314L108.413 116.101L108.571 115.888L108.731 115.703L108.916 115.49L109.075 115.277L109.26 115.091L109.419 114.879L109.631 115.038L109.868 115.198L110.081 115.357L110.319 115.517L110.532 115.649L110.77 115.809L110.981 115.942L111.22 116.048L111.431 116.181L111.669 116.288L111.909 116.394L112.146 116.5L112.385 116.58L112.624 116.686L112.888 116.766L113.153 116.846L113.39 116.925L113.656 116.979L113.921 117.032L114.185 117.085L114.476 117.111L114.742 117.165H115.007L115.297 117.191H115.562H115.879L116.17 117.165L116.437 117.111L116.674 117.058L116.912 117.005L117.125 116.925L117.31 116.819L117.522 116.66L117.68 116.473L117.787 116.261L117.867 116.022L117.893 115.756V115.703L117.867 115.383L117.76 115.118L117.627 114.932L117.443 114.772L117.23 114.613L117.018 114.506L116.781 114.4L116.515 114.294L116.197 114.161L116.012 114.108L115.801 114.055L115.562 113.974L115.324 113.921L115.06 113.842L114.794 113.789L114.503 113.709L114.238 113.656L113.947 113.576L113.683 113.523L113.417 113.443L113.153 113.39L112.888 113.31L112.649 113.231L112.385 113.177L112.146 113.097L111.909 113.018L111.669 112.938L111.378 112.831L111.114 112.725L110.849 112.619L110.583 112.512L110.346 112.38L110.081 112.247L109.868 112.114L109.631 111.981L109.419 111.822L109.207 111.689L109.022 111.529L108.836 111.343L108.651 111.157L108.492 110.971L108.334 110.785L108.201 110.599L108.069 110.386L107.936 110.147L107.83 109.963L107.75 109.75L107.672 109.51L107.592 109.298L107.539 109.032L107.486 108.793L107.459 108.527L107.432 108.261L107.406 107.969V107.676V107.623V107.357L107.432 107.091L107.459 106.852L107.486 106.586L107.539 106.347L107.592 106.108L107.672 105.868L107.725 105.629L107.83 105.39L107.936 105.151L108.042 104.912L108.174 104.672L108.307 104.433L108.465 104.22L108.625 104.008L108.809 103.795L108.995 103.609L109.18 103.396L109.393 103.21L109.577 103.077L109.79 102.918L110.002 102.758L110.213 102.626L110.452 102.493L110.69 102.386L110.928 102.253L111.167 102.147L111.431 102.067L111.696 101.961L111.935 101.881L112.146 101.828L112.385 101.775L112.624 101.722L112.888 101.669L113.126 101.615L113.39 101.589L113.656 101.562L113.921 101.536L114.185 101.509H114.449H114.742H115.033H115.324L115.615 101.536L115.906 101.562H116.17L116.463 101.589L116.727 101.642L117.018 101.669L117.283 101.722L117.522 101.775L117.787 101.828L118.051 101.881L118.289 101.934L118.555 102.014L118.793 102.094L119.031 102.147L119.297 102.253L119.535 102.333L119.772 102.439L120.01 102.546L120.276 102.652L120.514 102.785L120.725 102.892L120.965 103.024L121.202 103.157L121.414 103.29L121.653 103.45L121.864 103.582L122.077 103.742L122.288 103.902L122.499 104.061L122.341 104.274L122.208 104.486L122.05 104.699L121.891 104.912L121.733 105.151L121.6 105.363L121.44 105.576L121.282 105.789L121.149 106.002L120.991 106.214L120.832 106.427L120.698 106.64L120.541 106.879L120.381 107.091L120.223 107.304L120.09 107.517L119.932 107.729L119.719 107.57L119.481 107.437L119.27 107.304L119.057 107.145L118.82 107.038L118.607 106.905L118.369 106.799L118.158 106.693L117.918 106.586L117.707 106.48L117.469 106.4L117.257 106.294L116.965 106.214L116.701 106.134L116.437 106.055L116.17 106.002L115.906 105.948L115.642 105.895L115.377 105.868L115.111 105.842L114.874 105.815H114.609H114.292L114.001 105.868L113.734 105.922L113.497 105.975L113.286 106.081L113.099 106.187L112.861 106.4L112.702 106.64L112.597 106.879L112.57 107.145V107.198L112.597 107.543L112.728 107.836L112.835 107.995L113.019 108.181L113.259 108.314L113.47 108.447L113.734 108.554L114.027 108.66L114.345 108.766L114.556 108.819L114.767 108.899L115.007 108.952L115.244 109.032L115.509 109.085L115.801 109.165L116.092 109.244L116.384 109.324L116.674 109.378L116.939 109.457L117.23 109.537L117.496 109.59L117.76 109.67L118.025 109.75L118.262 109.829L118.528 109.909L118.766 109.989L119.004 110.069L119.297 110.173L119.561 110.306L119.825 110.413L120.09 110.545L120.329 110.679L120.567 110.811L120.778 110.944L120.991 111.104L121.202 111.237L121.414 111.423L121.626 111.609L121.811 111.822L121.997 112.007L122.155 112.22L122.315 112.459L122.446 112.672L122.579 112.912L122.686 113.124L122.765 113.363L122.844 113.602L122.897 113.842L122.95 114.108L123.003 114.374L123.03 114.639L123.056 114.932V115.224V115.277V115.57L123.03 115.862ZM104.459 121.177H104.194H103.929H103.665H103.401H103.134H102.87H102.606H102.341H102.049H101.784H101.52H101.256H100.989H100.725H100.461H100.196H99.9301H99.6657H99.4014H99.137H98.8724H98.6066H98.3422H98.0779H97.8133H97.5471H97.2828H97.0185H96.7274H96.4616H96.197H95.9326H95.6683H95.4025H95.1378H94.8735H94.6088H94.343H94.0787H93.8143H93.5497H93.2836H93.0195H92.7549H92.4906H92.2247H91.9601H91.6691H91.4047H91.1404H90.8743H90.6099H90.3453H90.0813H89.8154H89.5508H89.2865V120.911V120.645V120.38V120.115V119.849V119.583V119.318V119.052V118.786V118.52V118.255V117.989V117.723V117.457V117.191V116.925V116.66V116.394V116.154V115.888V115.623V115.357V115.091V114.825V114.559V114.294V114.028V113.762V113.496V113.231V112.965V112.699V112.433V112.167V111.901V111.635V111.369V111.104V110.838V110.572V110.306V110.042V109.776V109.51V109.244V108.979V108.713V108.447V108.181V107.915V107.649V107.384V107.118V106.852V106.613V106.347V106.081V105.815V105.55V105.284V105.018V104.752V104.486V104.22V103.955V103.689V103.423V103.157V102.892V102.626V102.36V102.094V101.828H89.5508H89.8154H90.0813H90.3453H90.6099H90.8743H91.1404H91.4047H91.6691H91.9337H92.1995H92.4642H92.7282H92.9928H93.232H93.4966H93.7609H94.0256H94.2914H94.5557H94.8201H95.0847H95.3505H95.6149H95.8792H96.1439H96.41H96.6743H96.9387H97.203H97.4691H97.7338H97.9978H98.2621H98.5268H98.7929H99.0572H99.3216H99.5859H99.852H100.116H100.381H100.645H100.885H101.149H101.413H101.678H101.944H102.208H102.473H102.737H103.003H103.267H103.532H103.796H104.062H104.327H104.591V102.094V102.333V102.599V102.865V103.13V103.37V103.636V103.902V104.141V104.407V104.672V104.912V105.178V105.443V105.709V105.948V106.214H104.327H104.062H103.796H103.532H103.267H103.003H102.764H102.499H102.235H101.97H101.704H101.44H101.176H100.911H100.645H100.381H100.116H99.852H99.5859H99.3483H99.0836H98.8193H98.5532H98.2891H98.0245H97.7602H97.494H97.2297H96.9654H96.701H96.4349H96.1703H95.9326H95.6683H95.4025H95.1378H94.8735H94.6088H94.343V106.48V106.746V107.011V107.277V107.543V107.783V108.048V108.314V108.58V108.846V109.112V109.378H94.6088H94.8735H95.1378H95.4025H95.6683H95.9326H96.197H96.4616H96.701H96.9654H97.2297H97.494H97.7602H98.0245H98.2891H98.5532H98.8193H99.0836H99.3483H99.6126H99.8784H100.143H100.407H100.672H100.938H101.202H101.44H101.704H101.97H102.235H102.499H102.764H103.029H103.294H103.558V109.643V109.882V110.147V110.413V110.652V110.918V111.184V111.423V111.689V111.954V112.22V112.459V112.725V112.991V113.231V113.496H103.294H103.029H102.764H102.499H102.235H101.97H101.704H101.44H101.202H100.938H100.672H100.407H100.143H99.8784H99.6126H99.3483H99.0836H98.8193H98.5532H98.2891H98.0245H97.7602H97.494H97.2297H96.9654H96.701H96.4616H96.197H95.9326H95.6683H95.4025H95.1378H94.8735H94.6088H94.343V113.762V114.055V114.32V114.586V114.879V115.144V115.41V115.703V115.968V116.234V116.526V116.792H94.6088H94.8735H95.1378H95.4025H95.6683H95.9326H96.197H96.4616H96.7274H97.0185H97.2828H97.5471H97.8133H98.0779H98.3422H98.6066H98.8724H99.137H99.4014H99.6657H99.9301H100.196H100.461H100.725H100.989H101.256H101.52H101.784H102.049H102.341H102.606H102.87H103.134H103.401H103.665H103.929H104.194H104.459H104.724V117.058V117.297V117.563V117.829V118.095V118.334V118.6V118.866V119.105V119.371V119.637V119.876V120.14V120.406V120.672V120.911V121.177H104.459ZM85.1119 121.177H84.8476H84.5829H84.2907H84.0264H83.7617H83.4974H83.2313H82.9669H82.6759H82.4115H82.1469H81.8811H81.6167H81.3524H81.0614H80.7952H80.5309H80.2663V120.911V120.645V120.38V120.114V119.846V119.58V119.315V119.049V118.783V118.517V118.251V117.984V117.718V117.452V117.187V116.921V116.653V116.387V116.121V115.856V115.59V115.324V115.057V114.791V114.525V114.259V113.993V113.728V113.46V113.194V112.928V112.663V112.397V112.131V111.864V111.598V111.332V111.066V110.8V110.533V110.267V110.001V109.735L80.1337 109.948L79.9755 110.189L79.8423 110.402L79.6845 110.615L79.5516 110.854L79.3917 111.066L79.2605 111.279L79.1273 111.52L78.9695 111.732L78.8363 111.945L78.677 112.158L78.5455 112.399L78.3859 112.611L78.2545 112.824L78.1213 113.063L77.9617 113.277L77.8302 113.49L77.6706 113.729L77.5395 113.942L77.3799 114.154L77.2485 114.395L77.1153 114.608L76.9559 114.821L76.8245 115.06L76.6649 115.274L76.5335 115.487L76.3739 115.7L76.2406 115.939L76.1092 116.153L75.9499 116.365L75.8185 116.605L75.6589 116.817L75.5259 117.03L75.3678 117.271L75.2349 117.484H75.1299L74.9706 117.244L74.8374 117.03L74.6792 116.791L74.5463 116.578L74.3882 116.339L74.2553 116.125L74.0974 115.885L73.9642 115.673L73.8046 115.434L73.6732 115.221L73.5136 114.98L73.3825 114.767L73.2228 114.528L73.0896 114.315L72.9318 114.075L72.7986 113.862L72.6408 113.623L72.4811 113.41L72.3482 113.169L72.1901 112.957L72.0572 112.718L71.8991 112.505L71.7662 112.264L71.608 112.051L71.4751 111.812L71.3155 111.6L71.1841 111.36L71.0245 111.146L70.893 110.907L70.7334 110.694L70.6005 110.455L70.4427 110.242L70.3092 110.001L70.1513 109.789V110.054V110.32V110.586V110.854V111.119V111.385V111.651V111.917V112.184V112.45V112.689V112.955V113.221V113.487V113.754V114.02V114.286V114.551V114.817V115.083V115.351V115.617V115.882V116.148V116.414V116.68V116.947V117.213V117.479V117.745V118.01V118.278V118.517V118.783V119.049V119.315V119.58V119.846V120.114V120.38V120.645V120.911V121.177H69.887H69.6212H69.3565H69.0922H68.8279H68.562H68.2974H68.0331H67.7684H67.5026H67.2383H66.9736H66.7093H66.4435H66.1791H65.9145H65.6498H65.384H65.1197V120.911V120.645V120.38V120.115V119.849V119.583V119.318V119.052V118.786V118.52V118.255V117.989V117.723V117.457V117.191V116.925V116.66V116.394V116.154V115.888V115.623V115.357V115.091V114.825V114.559V114.294V114.028V113.762V113.496V113.231V112.965V112.699V112.433V112.167V111.901V111.635V111.369V111.104V110.838V110.572V110.306V110.042V109.776V109.51V109.244V108.979V108.713V108.447V108.181V107.915V107.649V107.384V107.118V106.852V106.613V106.347V106.081V105.815V105.55V105.284V105.018V104.752V104.486V104.22V103.955V103.689V103.423V103.157V102.892V102.626V102.36V102.094V101.828H65.384H65.6498H65.8881H66.1521H66.4168H66.6826H66.9205H67.1849H67.451H67.7153H67.9533H68.2176H68.4837H68.7481H68.9857H69.25H69.5161H69.7808H70.0184H70.2828H70.5489L70.6803 102.041L70.8132 102.28L70.9711 102.491L71.1043 102.73L71.2372 102.943L71.3686 103.182L71.5015 103.393L71.6599 103.633L71.7926 103.845L71.9258 104.058L72.0572 104.295L72.1901 104.508L72.3482 104.747L72.4811 104.96L72.6141 105.198L72.7455 105.41L72.9051 105.623L73.0383 105.861L73.1694 106.073L73.3023 106.313L73.4341 106.525L73.5937 106.763L73.7266 106.976L73.8577 107.215L73.9909 107.426L74.1224 107.639L74.282 107.878L74.4149 108.091L74.5463 108.33L74.6792 108.541L74.8107 108.78L74.9706 108.993L75.1035 109.23L75.2349 109.443L75.3678 109.23L75.5007 108.993L75.6589 108.78L75.7915 108.541L75.9232 108.33L76.0561 108.091L76.2142 107.878L76.3472 107.639L76.4804 107.426L76.6115 107.215L76.7711 106.976L76.9025 106.763L77.0357 106.525L77.1684 106.313L77.3265 106.073L77.4594 105.861L77.5926 105.623L77.7237 105.41L77.8572 105.198L78.0151 104.96L78.148 104.747L78.2809 104.508L78.4126 104.295L78.5719 104.058L78.7037 103.845L78.8363 103.633L78.9695 103.393L79.1273 103.182L79.2605 102.943L79.3917 102.73L79.5249 102.491L79.6845 102.28L79.8159 102.041L79.9488 101.828H80.2132H80.4778H80.7169H80.9816H81.2459H81.5102H81.7496H82.0143H82.2783H82.543H82.7824H83.0467H83.3111H83.5757H83.8148H84.0795H84.3438H84.6081H84.8476H85.1119H85.3762V102.094V102.36V102.626V102.892V103.157V103.423V103.689V103.955V104.22V104.486V104.752V105.018V105.284V105.55V105.815V106.081V106.347V106.613V106.852V107.118V107.384V107.649V107.915V108.181V108.447V108.713V108.979V109.244V109.51V109.776V110.042V110.306V110.572V110.838V111.104V111.369V111.635V111.901V112.167V112.433V112.699V112.965V113.231V113.496V113.762V114.028V114.294V114.559V114.825V115.091V115.357V115.623V115.888V116.154V116.394V116.66V116.925V117.191V117.457V117.723V117.989V118.255V118.52V118.786V119.052V119.318V119.583V119.849V120.115V120.38V120.645V120.911V121.177H85.1119ZM54.3883 113.204L54.3084 112.963L54.2037 112.697L54.0972 112.458L54.0174 112.217L53.9127 111.978L53.8065 111.712L53.7264 111.471L53.6199 111.232L53.5154 110.993L53.4353 110.752L53.3288 110.486L53.2508 110.247L53.1443 110.006L53.0378 109.767L52.9583 109.528L52.8532 109.26L52.747 109.021L52.6672 108.782L52.5607 108.541L52.456 108.275L52.3762 108.034L52.2697 107.795L52.165 108.034L52.0854 108.275L51.9789 108.541L51.8724 108.782L51.7941 109.021L51.6879 109.26L51.5814 109.528L51.4767 109.767L51.3966 110.006L51.2903 110.247L51.1838 110.486L51.1055 110.752L50.9993 110.993L50.8928 111.232L50.8133 111.471L50.7083 111.712L50.6018 111.978L50.4955 112.217L50.4175 112.458L50.311 112.697L50.2045 112.963L50.1247 113.204L50.02 113.443H50.2843H50.5487H50.8133H51.0791H51.3435H51.6078H51.8724H52.1386H52.3762H52.6405H52.9067H53.171H53.4353H53.7H53.9643H54.2301H54.4945L54.3883 113.204ZM62.7041 121.177H62.4383H62.2001H61.936H61.6699H61.4056H61.1409H60.9033H60.6372H60.3728H60.1085H59.8439H59.578H59.3401H59.0758H58.8111H58.5453H58.281H58.043H57.7787H57.5129L57.4078 120.938L57.328 120.698L57.2218 120.459L57.1153 120.193L57.037 119.956L56.9308 119.717L56.8243 119.477L56.746 119.238L56.6397 118.999L56.5332 118.759L56.4537 118.52L56.3487 118.255L56.2422 118.015L56.1624 117.776L56.0559 117.537H55.7915H55.5272H55.2629H54.9985H54.7591H54.4945H54.2301H53.9643H53.7H53.4353H53.171H52.9067H52.6405H52.3762H52.1386H51.8724H51.6078H51.3435H51.0791H50.8133H50.5487H50.2843H50.02H49.7556H49.5159H49.2519H48.9872H48.7211H48.4568L48.3521 117.776L48.2722 118.015L48.1657 118.255L48.0595 118.52L47.9812 118.759L47.875 118.999L47.7685 119.238L47.6887 119.477L47.584 119.717L47.4774 119.956L47.3976 120.193L47.2926 120.459L47.1864 120.698L47.1066 120.938L47.0001 121.177H46.7358H46.4714H46.2071H45.941H45.6766H45.3856H45.1212H44.8566H44.5908H44.3264H44.0621H43.7975H43.5313H43.2673H43.003H42.7119H42.4458H42.1815H41.9168H41.6525L41.7572 120.938L41.8637 120.698L41.9699 120.459L42.0749 120.193L42.1548 119.956L42.2613 119.717L42.3675 119.477L42.4722 119.238L42.5787 118.999L42.6852 118.733L42.7899 118.493L42.8965 118.255L42.976 118.015L43.0825 117.776L43.1872 117.537L43.2937 117.271L43.3999 117.032L43.5049 116.792L43.6114 116.553L43.7176 116.314L43.7975 116.075L43.9022 115.809L44.0087 115.57L44.1152 115.33L44.2199 115.091L44.3264 114.852L44.4329 114.613L44.5377 114.347L44.6175 114.108L44.724 113.868L44.8302 113.629L44.9352 113.39L45.0414 113.151L45.1476 112.885L45.2527 112.646L45.3589 112.406L45.4387 112.167L45.5452 111.928L45.6499 111.689L45.7564 111.423L45.8629 111.184L45.9677 110.944L46.0739 110.705L46.1804 110.466L46.2602 110.226L46.3652 109.989L46.4714 109.723L46.5776 109.484L46.6826 109.244L46.7889 109.005L46.8954 108.766L47.0001 108.527L47.0799 108.261L47.1864 108.022L47.2926 107.783L47.3976 107.543L47.5041 107.304L47.6104 107.065L47.7154 106.799L47.8216 106.56L47.9014 106.321L48.0076 106.081L48.1126 105.842L48.2188 105.603L48.3254 105.337L48.4301 105.098L48.5366 104.859L48.6431 104.619L48.7211 104.38L48.8276 104.141L48.9341 103.875L49.0406 103.636L49.1454 103.396L49.2519 103.157L49.3581 102.918L49.4628 102.679L49.5429 102.413L49.6491 102.174L49.7556 101.934L49.8604 101.695H50.1247H50.3641H50.6285H50.8928H51.1589H51.3966H51.6609H51.9255H52.1917H52.4296H52.6936H52.9583H53.2241H53.462H53.7264H53.9907H54.2568H54.4945H54.7591L54.8653 101.934L54.9718 102.174L55.0768 102.413L55.1831 102.679L55.2629 102.918L55.3676 103.157L55.4741 103.396L55.5803 103.636L55.6868 103.875L55.7915 104.141L55.898 104.38L56.0046 104.619L56.0826 104.859L56.1891 105.098L56.2956 105.337L56.4021 105.603L56.5068 105.842L56.613 106.081L56.7196 106.321L56.8243 106.56L56.9041 106.799L57.0103 107.065L57.1153 107.304L57.2218 107.543L57.328 107.783L57.4345 108.022L57.5393 108.261L57.6455 108.527L57.7256 108.766L57.8303 109.005L57.9365 109.244L58.043 109.484L58.1495 109.723L58.2543 109.989L58.3608 110.226L58.467 110.466L58.5453 110.705L58.6515 110.944L58.758 111.184L58.863 111.423L58.9693 111.689L59.0758 111.928L59.1823 112.167L59.287 112.406L59.3668 112.646L59.473 112.885L59.578 113.151L59.6842 113.39L59.7908 113.629L59.897 113.868L60.002 114.108L60.1085 114.347L60.188 114.613L60.293 114.852L60.3992 115.091L60.5058 115.33L60.6105 115.57L60.717 115.809L60.8235 116.075L60.93 116.314L61.008 116.553L61.1145 116.792L61.221 117.032L61.3258 117.271L61.432 117.537L61.5385 117.776L61.6447 118.015L61.7494 118.255L61.8295 118.493L61.936 118.733L62.0408 118.999L62.147 119.238L62.2532 119.477L62.3582 119.717L62.4644 119.956L62.5709 120.193L62.651 120.459L62.7555 120.698L62.862 120.938L62.9682 121.177H62.7041ZM39.506 118.706L39.2933 118.866L39.1085 118.999L38.8957 119.158L38.6845 119.291L38.4733 119.451L38.2606 119.583L38.0493 119.717L37.8099 119.849L37.572 119.982L37.334 120.115L37.0949 120.22L36.857 120.353L36.5926 120.459L36.355 120.565L36.0889 120.672L35.8512 120.778L35.613 120.858L35.3739 120.938L35.1359 121.018L34.8716 121.097L34.634 121.177L34.3679 121.23L34.1299 121.283L33.8656 121.336L33.5998 121.389L33.3351 121.416L33.0441 121.443L32.7797 121.469L32.4887 121.496L32.2226 121.523L31.9318 121.549H31.6408H31.3495H31.0587H30.7926L30.5283 121.523L30.2372 121.496L29.9729 121.469L29.7085 121.443L29.4424 121.416L29.1781 121.363L28.9134 121.31L28.6758 121.257L28.41 121.204L28.172 121.124L27.9077 121.071L27.6683 120.991L27.4303 120.884L27.1924 120.805L26.9284 120.698L26.6889 120.592L26.451 120.486L26.2134 120.38L25.9737 120.247L25.7627 120.115L25.5248 119.982L25.3121 119.849L25.1008 119.717L24.8881 119.557L24.6769 119.398L24.4653 119.238L24.2793 119.078L24.0948 118.919L23.9085 118.733L23.7239 118.574L23.5376 118.387L23.3531 118.201L23.1935 118.015L23.0354 117.803L22.8757 117.616L22.7428 117.404L22.5847 117.191L22.4521 116.979L22.3204 116.766L22.1875 116.526L22.0545 116.314L21.9498 116.075L21.8433 115.835L21.7371 115.596L21.6321 115.357L21.5523 115.144L21.4458 114.905L21.3927 114.666L21.3143 114.427L21.2612 114.161L21.1814 113.921L21.1283 113.656L21.1016 113.416L21.0482 113.151L21.0221 112.912L20.9951 112.646L20.9702 112.38L20.9438 112.114V111.822V111.556V111.503V111.237L20.9702 110.944V110.679L20.9951 110.413L21.0221 110.12L21.0752 109.856L21.1016 109.59L21.1547 109.351L21.2345 109.085L21.2879 108.819L21.366 108.58L21.4458 108.314L21.5256 108.075L21.6321 107.809L21.7371 107.57L21.8433 107.331L21.9498 107.091L22.0545 106.852L22.1875 106.613L22.3204 106.4L22.4521 106.187L22.5847 105.975L22.7179 105.762L22.8757 105.55L23.0354 105.337L23.1935 105.124L23.3531 104.938L23.5376 104.752L23.6972 104.566L23.8821 104.38L24.0681 104.194L24.2526 104.035L24.4653 103.848L24.6502 103.689L24.8614 103.529L25.0741 103.396L25.2854 103.237L25.4984 103.104L25.7093 102.971L25.9473 102.838L26.1867 102.705L26.4243 102.572L26.6622 102.466L26.9014 102.36L27.166 102.227L27.3772 102.147L27.6416 102.067L27.8813 101.961L28.1189 101.908L28.3566 101.828L28.6224 101.775L28.8603 101.695L29.1247 101.642L29.3893 101.615L29.6551 101.562L29.9198 101.536L30.1838 101.509L30.4484 101.483L30.7146 101.456H31.0056H31.2699H31.5607H31.8517L32.1446 101.483L32.4356 101.509H32.6999L32.9643 101.536L33.2553 101.589L33.4947 101.615L33.7591 101.669L34.0237 101.722L34.2628 101.775L34.5005 101.828L34.7387 101.881L34.9781 101.961L35.2158 102.014L35.427 102.094L35.6664 102.174L35.9043 102.28L36.142 102.386L36.3814 102.493L36.6193 102.626L36.857 102.732L37.07 102.865L37.3076 102.998L37.5189 103.13L37.7583 103.264L37.9695 103.423L38.1808 103.556L38.3935 103.715L38.6047 103.875L38.8174 104.061L39.0287 104.22L38.869 104.433L38.6845 104.619L38.5249 104.832L38.3404 105.044L38.1808 105.257L38.0226 105.443L37.8363 105.656L37.6785 105.868L37.5189 106.055L37.334 106.267L37.1747 106.48L36.9899 106.693L36.8303 106.879L36.6724 107.091L36.4864 107.304L36.328 107.517L36.142 107.703L35.9839 107.915L35.7711 107.756L35.5599 107.57L35.3472 107.437L35.1359 107.277L34.9247 107.145L34.712 107.011L34.5005 106.879L34.2628 106.746L34.0501 106.64L33.8389 106.533L33.6262 106.453L33.3882 106.374L33.1506 106.294L32.9112 106.241L32.6468 106.187L32.3825 106.134L32.1178 106.108L31.8268 106.081L31.5343 106.055H31.2432H30.9789L30.7146 106.081L30.4751 106.108L30.2108 106.161L29.9729 106.214L29.7335 106.294L29.4958 106.374L29.2579 106.48L29.0199 106.586L28.8072 106.719L28.5963 106.852L28.3833 106.985L28.1987 107.145L28.0124 107.304L27.8279 107.464L27.6683 107.649L27.4837 107.836L27.3241 108.048L27.1924 108.234L27.0595 108.447L26.9284 108.686L26.7952 108.899L26.6889 109.138L26.6091 109.378L26.5041 109.617L26.4243 109.882L26.3712 110.147L26.3181 110.386L26.2647 110.679L26.2383 110.944L26.2134 111.21V111.503V111.556V111.822L26.2383 112.087L26.2647 112.327L26.2914 112.592L26.3445 112.831L26.3979 113.071L26.451 113.31L26.5308 113.549L26.6091 113.762L26.7156 114.028L26.8219 114.267L26.9533 114.506L27.0862 114.719L27.2191 114.932L27.3772 115.144L27.5369 115.33L27.7214 115.517L27.8813 115.703L28.0655 115.862L28.2785 116.022L28.4898 116.181L28.7007 116.314L28.9134 116.447L29.1517 116.553L29.3893 116.66L29.6284 116.766L29.8931 116.846L30.1574 116.925L30.4235 116.979L30.6879 117.032L30.9522 117.058L31.2432 117.085H31.5343H31.8517L32.1446 117.058L32.4356 117.032L32.6999 117.005L32.9643 116.952L33.2304 116.899L33.4947 116.819L33.7324 116.766L33.9706 116.66L34.1833 116.553L34.421 116.447L34.607 116.341L34.8185 116.207V115.942V115.676V115.41V115.144V114.852V114.586V114.32V114.055V113.789H34.5539H34.3147H34.0501H33.7858H33.5214H33.282H33.0174H32.753H32.4887H32.2496H31.9849H31.7206H31.456H31.2168H30.9522V113.523V113.284V113.018V112.752V112.486V112.247V111.981V111.715V111.449V111.21V110.944V110.679V110.413V110.173V109.909H31.2168H31.4827H31.7473H32.0113H32.276H32.5403H32.8064H33.0708H33.3351H33.5998H33.8656H34.1299H34.3943H34.6586H34.9247H35.1894H35.4537H35.718H35.9839H36.2485H36.5128H36.7772H37.043H37.3076H37.572H37.8363H38.1024H38.3668H38.6314H38.8957H39.1616H39.4259H39.6906V110.173V110.439V110.705V110.944V111.21V111.476V111.742V112.007V112.273V112.512V112.778V113.044V113.31V113.576V113.842V114.108V114.347V114.613V114.879V115.144V115.41V115.676V115.942V116.181V116.447V116.713V116.979V117.244V117.51V117.75V118.015V118.281V118.547L39.506 118.706Z" fill="black"/>
<path d="M30.9897 58.0487H42.4661V49.1767H30.9897V31.0646H42.923V22.1926H21.2441V86.2227H43.1045V77.3504H30.9897V58.0487Z" fill="black"/>
<path d="M113.192 59.9706V74.4233C113.192 76.9848 112.007 78.1732 109.549 78.1732H107.726C105.176 78.1732 103.992 76.9848 103.992 74.4233V33.9916C103.992 31.4305 105.176 30.2421 107.726 30.2421H109.366C111.826 30.2421 113.01 31.4305 113.01 33.9916V46.5245H122.573V33.4428C122.573 25.4856 118.747 21.6435 110.825 21.6435H106.087C98.1638 21.6435 94.2459 25.5763 94.2459 33.535V74.88C94.2459 82.839 98.1638 86.7715 106.087 86.7715H110.915C118.84 86.7715 122.756 82.839 122.756 74.88V59.9706H113.192Z" fill="black"/>
<path d="M79.3483 86.2228H89.0953V22.1924H79.3483V86.2228Z" fill="black"/>
<path d="M65.2059 50.64C65.2059 53.2015 64.023 54.3913 61.5635 54.3913H57.5551V30.7909H61.5635C64.023 30.7909 65.2059 31.9796 65.2059 34.5405V50.64ZM63.111 22.1923H47.8093V86.2227H57.5551V62.9881H63.111C71.0356 62.9881 74.9517 59.0556 74.9517 51.0984V34.0839C74.9517 26.1251 71.0356 22.1923 63.111 22.1923Z" fill="black"/>
<path fill-rule="evenodd" clip-rule="evenodd" d="M44.2357 144.119H100.027L71.5502 153.504L44.2357 144.119Z" fill="black"/>
</g>
<defs>
<clipPath id="clip0">
<rect width="144" height="167" fill="white"/>
</clipPath>
</defs>
</svg>
