<svg version="1" xmlns="http://www.w3.org/2000/svg" width="400" height="400" viewBox="0 0 300.000000 300.000000"><path d="M119 2C67.3 13.3 25 50.7 7.7 100.5 1.5 118.4.5 125 .5 149c0 18.9.3 22.8 2.3 31.9 7.1 31.4 21 56.2 44.4 78.7 20.9 20.1 46.7 33.5 74.7 38.8 11.5 2.2 44.7 2.2 56.2 0 44.6-8.4 83.7-37.7 104.8-78.5 6.5-12.5 11.9-27.4 14.8-40.9 2.6-12.3 2.6-47.9-.1-60-4.2-19.5-13.8-41.1-25.3-57.3-7.8-10.9-23.8-26.7-35.3-34.9C220.4 15 200.2 6.1 180.7 2c-13-2.8-49.1-2.7-61.7 0zm57 20.5c26.5 5.8 48.5 18 67.4 37.5 19 19.5 31.2 43.9 35.1 69.7 10.3 68-34.5 131.2-103.5 146-11.9 2.5-38.1 2.5-50 0-18.3-3.9-36-11.5-49.8-21.5-64.9-46.4-74-136.6-19.4-193.4 21-21.9 44.6-34.3 74.7-39.4 10.2-1.7 35.2-1.1 45.5 1.1z"/><path d="M132 61.9c-20.5 7.9-34 17.2-53.5 36.6-7.8 7.7-16.4 17.1-19.3 21-6.5 8.7-13.3 21.8-16.2 31-2.2 7.4-3.9 24.5-2.4 24.5.5 0 2.6-3.1 4.6-6.9 8.6-16 28.3-38.1 37.8-42.5 6.7-3.1 8.9-3.2 12.4-.5l2.6 2v37.5c0 23.4-.4 38.2-1 39.4-1.3 2.4-7 3.5-11 2.2-5.2-1.8-3.6 1 4.8 8.9 12.6 11.8 29.6 19.7 51.7 24.1l10 1.9 11-11.6 11-11.6 10.2 8.7 10.3 8.6 6.7-4.8c9.7-6.8 22.4-19.4 30.8-30.5 7.2-9.6 17-25.8 16.1-26.7-.3-.2-3.9 2.7-8 6.5-11.5 10.7-21.8 15.3-29.2 12.9-1.5-.4-2.3-1.8-2.8-4.4-.3-2-.6-21.6-.6-43.5v-39.8l3.6-5.7c4-6.2 14.8-20.5 20.1-26.5 1.8-2 3.3-4.1 3.3-4.6 0-1-13 2.6-21 5.8-11.1 4.5-22.6 11.9-31.6 20.3-5.1 4.8-5.1 4.8-8.5 3.4-1.9-.8-6-1.7-9.1-2.1-6.8-.8-7.5.2-2.8 4.2 1.7 1.4 4.1 4.4 5.3 6.7 2.1 4 2.2 5.1 2.5 43.2l.3 39.2-3.8 2.9c-11.2 8.8-21.1 10.3-27.3 4.1l-3-3v-92.6l-3.8.5c-5.5.7-7.5-2-8-10.6-.3-5.4 0-7.9 1.7-11.5 2.8-6.4 7.4-12 12.7-15.7 2.4-1.6 4.4-3.4 4.4-3.9 0-1.4-.3-1.3-11 2.9z"/></svg>