{
  "accessors": [
    {
      "bufferView": 2,
      "componentType": 5126,
      "count": 7016,
      "max": [
        68.102737426757812,
        277.08453369140625,
        267.95590209960938
      ],
      "min": [
        -123.34906005859375,
        -109.03875732421875,
        5.843043327331543
      ],
      "type": "VEC3"
    },
    {
      "bufferView": 2,
      "byteOffset": 84192,
      "componentType": 5126,
      "count": 7016,
      "max": [
        0.99999547004699707,
        0.99999970197677612,
        0.99997395277023315
      ],
      "min": [
        -1,
        -0.9999997615814209,
        -0.99994832277297974
      ],
      "type": "VEC3"
    },
    {
      "bufferView": 3,
      "componentType": 5126,
      "count": 7016,
      "max": [
        0.99924582242965698,
        0.99997389316558838,
        0.99999970197677612,
        1
      ],
      "min": [
        -0.99935168027877808,
        -0.99994838237762451,
        -0.99999970197677612,
        -1
      ],
      "type": "VEC4"
    },
    {
      "bufferView": 1,
      "componentType": 5126,
      "count": 7016,
      "max": [
        0.99730002880096436,
        0.99709999561309814
      ],
      "min": [
        -0.99540001153945923,
        0.0026000000070780516
      ],
      "type": "VEC2"
    },
    {
      "bufferView": 0,
      "componentType": 5125,
      "count": 33951,
      "max": [
        7015
      ],
      "min": [
        0
      ],
      "type": "SCALAR"
    },
    {
      "bufferView": 2,
      "byteOffset": 168384,
      "componentType": 5126,
      "count": 1829,
      "max": [
        35.309276580810547,
        34.818084716796875,
        289.16107177734375
      ],
      "min": [
        -36.481395721435547,
        -65.396774291992188,
        186.98896789550781
      ],
      "type": "VEC3"
    },
    {
      "bufferView": 2,
      "byteOffset": 190332,
      "componentType": 5126,
      "count": 1829,
      "max": [
        0.99824035167694092,
        0.99929404258728027,
        0.99996614456176758
      ],
      "min": [
        -0.99613922834396362,
        -0.99952775239944458,
        -0.99859249591827393
      ],
      "type": "VEC3"
    },
    {
      "bufferView": 3,
      "byteOffset": 112256,
      "componentType": 5126,
      "count": 1829,
      "max": [
        0.99993366003036499,
        0.9999428391456604,
        0.99811255931854248,
        1
      ],
      "min": [
        -0.99962913990020752,
        -0.99581140279769897,
        -0.99878865480422974,
        -1
      ],
      "type": "VEC4"
    },
    {
      "bufferView": 1,
      "byteOffset": 56128,
      "componentType": 5126,
      "count": 1829,
      "max": [
        0.99779999256134033,
        0.99639999866485596
      ],
      "min": [
        0.003599999938160181,
        0.0066999997943639755
      ],
      "type": "VEC2"
    },
    {
      "bufferView": 0,
      "byteOffset": 135804,
      "componentType": 5125,
      "count": 8970,
      "max": [
        1828
      ],
      "min": [
        0
      ],
      "type": "SCALAR"
    }
  ],
  "asset": {
    "extras": {
      "author": "Henrique Naspolini (https://sketchfab.com/henriquedw)",
      "license": "CC-BY-NC-4.0 (http://creativecommons.org/licenses/by-nc/4.0/)",
      "source": "https://sketchfab.com/models/e444a88e999549d99eacb1ea0f8e04e4",
      "title": "Xeno Raven"
    },
    "generator": "Sketchfab-3.19.5",
    "version": "2.0"
  },
  "bufferViews": [
    {
      "buffer": 0,
      "byteLength": 171684,
      "byteOffset": 0,
      "name": "floatBufferViews",
      "target": 34963
    },
    {
      "buffer": 0,
      "byteLength": 70760,
      "byteOffset": 171684,
      "byteStride": 8,
      "name": "floatBufferViews",
      "target": 34962
    },
    {
      "buffer": 0,
      "byteLength": 212280,
      "byteOffset": 242444,
      "byteStride": 12,
      "name": "floatBufferViews",
      "target": 34962
    },
    {
      "buffer": 0,
      "byteLength": 141520,
      "byteOffset": 454724,
      "byteStride": 16,
      "name": "floatBufferViews",
      "target": 34962
    }
  ],
  "buffers": [
    {
      "byteLength": 596244,
      "uri": "scene.bin"
    }
  ],
  "images": [
    {
      "uri": "textures/default_normal.png"
    },
    {
      "uri": "textures/default_baseColor.png"
    },
    {
      "uri": "textures/default_metallicRoughness.png"
    },
    {
      "uri": "textures/07_-_Default_baseColor.png"
    },
    {
      "uri": "textures/07_-_Default_normal.png"
    },
    {
      "uri": "textures/07_-_Default_metallicRoughness.png"
    }
  ],
  "materials": [
    {
      "doubleSided": true,
      "name": "07_-_Default",
      "normalTexture": {
        "index": 4,
        "scale": 1,
        "texCoord": 0
      },
      "pbrMetallicRoughness": {
        "baseColorFactor": [
          0.3187881098,
          0.3187881098,
          0.3187881098,
          1
        ],
        "baseColorTexture": {
          "index": 3,
          "texCoord": 0
        },
        "metallicFactor": 0.63586128050000001,
        "metallicRoughnessTexture": {
          "index": 5,
          "texCoord": 0
        },
        "roughnessFactor": 0.2177972561
      }
    },
    {
      "doubleSided": true,
      "emissiveFactor": [
        0,
        0,
        0
      ],
      "name": "default",
      "normalTexture": {
        "index": 0,
        "scale": 1,
        "texCoord": 0
      },
      "pbrMetallicRoughness": {
        "baseColorFactor": [
          1,
          1,
          1,
          1
        ],
        "baseColorTexture": {
          "index": 1,
          "texCoord": 0
        },
        "metallicFactor": 1,
        "metallicRoughnessTexture": {
          "index": 2,
          "texCoord": 0
        },
        "roughnessFactor": 0.25438262199999995
      }
    }
  ],
  "meshes": [
    {
      "name": "body_07 - Default_0",
      "primitives": [
        {
          "attributes": {
            "NORMAL": 1,
            "POSITION": 0,
            "TANGENT": 2,
            "TEXCOORD_0": 3
          },
          "indices": 4,
          "material": 0,
          "mode": 4
        }
      ]
    },
    {
      "name": "head_default_0",
      "primitives": [
        {
          "attributes": {
            "NORMAL": 6,
            "POSITION": 5,
            "TANGENT": 7,
            "TEXCOORD_0": 8
          },
          "indices": 9,
          "material": 1,
          "mode": 4
        }
      ]
    }
  ],
  "nodes": [
    {
      "children": [
        1
      ],
      "name": "RootNode (gltf orientation matrix)",
      "rotation": [
        -0.70710678118654746,
        -0,
        -0,
        0.70710678118654757
      ]
    },
    {
      "children": [
        2
      ],
      "name": "RootNode (model correction matrix)"
    },
    {
      "children": [
        3
      ],
      "matrix": [
        1,
        0,
        0,
        0,
        0,
        0,
        1,
        0,
        0,
        -1,
        0,
        0,
        0,
        0,
        0,
        1
      ],
      "name": "49da11f1aafb41c5b81b8f5808aec52e.fbx"
    },
    {
      "children": [
        4,
        6
      ],
      "name": "RootNode"
    },
    {
      "children": [
        5
      ],
      "matrix": [
        1,
        0,
        0,
        0,
        0,
        2.2204460492503131e-16,
        -1,
        0,
        0,
        1,
        2.2204460492503131e-16,
        0,
        0,
        -6.4322519302368164,
        -2.8116267003497342e-07,
        1
      ],
      "name": "body"
    },
    {
      "mesh": 0,
      "name": "body_07 - Default_0"
    },
    {
      "children": [
        7
      ],
      "matrix": [
        1,
        0,
        0,
        0,
        0,
        2.2204460492503131e-16,
        -1,
        0,
        0,
        1,
        2.2204460492503131e-16,
        0,
        0,
        -6.4322519302368164,
        -2.8116267003497342e-07,
        1
      ],
      "name": "head"
    },
    {
      "mesh": 1,
      "name": "head_default_0"
    }
  ],
  "samplers": [
    {
      "magFilter": 9729,
      "minFilter": 9987,
      "wrapS": 10497,
      "wrapT": 10497
    }
  ],
  "scene": 0,
  "scenes": [
    {
      "name": "OSG_Scene",
      "nodes": [
        0
      ]
    }
  ],
  "textures": [
    {
      "sampler": 0,
      "source": 0
    },
    {
      "sampler": 0,
      "source": 1
    },
    {
      "sampler": 0,
      "source": 2
    },
    {
      "sampler": 0,
      "source": 3
    },
    {
      "sampler": 0,
      "source": 4
    },
    {
      "sampler": 0,
      "source": 5
    }
  ]
}

